<?xml version="1.0" standalone="no"?>
<!DOCTYPE svg PUBLIC "-//W3C//DTD SVG 1.1//EN" "http://www.w3.org/Graphics/SVG/1.1/DTD/svg11.dtd" >
<!--
2013-9-30: Created.
-->
<svg>
<metadata>
Created by iconfont
</metadata>
<defs>

<font id="iconfont" horiz-adv-x="1024" >
  <font-face
    font-family="iconfont"
    font-weight="500"
    font-stretch="normal"
    units-per-em="1024"
    ascent="896"
    descent="-128"
  />
    <missing-glyph />
    
    <glyph glyph-name="icon-gdgl" unicode="&#58906;" d="M824.95 895.98h-91.41c-7.24-0.1-13.5-5.08-15.23-12.11-8.84-37.4-42.16-63.85-80.59-63.98h-250.6c-38.38 0.17-71.64 26.63-80.44 63.98A15.92 15.92 0 0 1 290.53 895.98h-91.41c-45.68-0.13-82.67-37.12-82.8-82.8V-45.2c0.13-45.68 37.12-82.67 82.8-82.8h625.76c45.68 0.13 82.67 37.12 82.8 82.8V813.19C907.55 858.83 870.6 895.82 824.95 895.98zM359.16 593.12c0.53 2.21 1.14 4.42 1.6 6.63 2.21 13.55 7.16 26.51 14.55 38.09l71.3-72.44 37.55 38.09L411.03 676l41.59 13.33h24.53c15.62-2.26 30.62-7.65 44.1-15.84 38.12-23.47 57.19-68.5 47.53-112.2a9.575 9.575 0 0 1 3.05-9.9c26-25.95 51.92-52 77.77-78.15 21.19-20.15 22.03-53.66 1.88-74.84-20.15-21.19-53.66-22.03-74.84-1.88-0.71 0.67-1.39 1.36-2.06 2.07-25.44 25.44-50.96 50.81-76.17 76.17a12.71 12.71 0 0 1-13.25 4.34c-49.42-9.71-98.78 17-117.69 63.68-3.73 9.6-5.48 19.96-8.3 29.94v20.4z m268.51-527.87c-0.08-24.74-20.12-44.78-44.87-44.87H313.84c-24.78 0-44.87 20.09-44.87 44.87 0 24.78 20.09 44.87 44.87 44.87h269.12c24.67-0.17 44.6-20.19 44.64-44.87h0.07z m156.3 188.37c-0.08-24.74-20.12-44.78-44.87-44.87H313.84c-24.78 0-44.87 20.08-44.87 44.86s20.08 44.87 44.86 44.87H739.12c24.73-0.08 44.77-20.11 44.85-44.86z"  horiz-adv-x="1024" />

    
    <glyph glyph-name="icon-fwry" unicode="&#58907;" d="M245.591301 507.511897c0-147.169281 119.309417-266.478699 266.478699-266.478699s266.478699 119.309417 266.478698 266.478699-119.299417 266.468699-266.478698 266.468699c-147.169281 0-266.478699-119.299417-266.478699-266.468699zM718.488992 265.773077c-92.709547-114.039443-260.308729-131.329359-374.348172-38.619811a266.022701 266.022701 0 0 0-38.619812 38.619811C164.051699 225.873272 61.332201 103.593869 46.452273-42.635417c0-113.819444 931.095454-113.819444 931.095454 0-14.859927 146.239286-117.589426 268.528689-259.058735 308.408494zM879.298207 614.931372C824.398475 817.710382 615.519495 937.579797 412.750485 882.690065 282.261122 847.360237 180.32162 745.430735 144.991792 614.931372c-44.299784-11.879942-74.459636-52.859742-72.619645-98.689518-2.899986-51.829747 36.339823-96.399529 88.119569-100.089511 23.789884 0 35.689826 49.19976 35.759826 99.939512h0.949995C197.151537 690.201005 338.240848 831.380316 512.339998 831.430315c169.549172 0.05 308.768492-134.009346 315.108462-303.438518-1.97999-53.749738 9.839952-111.979453 35.539826-111.979453 51.729747 3.919981 90.859556 48.429764 88.11957 100.22951 1.769991 45.579777-28.019863 86.399578-71.959649 98.619519l0.15 0.069999z"  horiz-adv-x="1024" />

    
    <glyph glyph-name="icon-sjbb" unicode="&#58908;" d="M993.54-37.22H961.2V323.52c0.13 33.21-28.48 60.22-63.9 60.34H769.33c-35.46 0.32-64.48-26.38-64.82-59.62V-37.22h-64.13V804.51c0 33.44-28.92 60.55-64.59 60.55H448.67c-35.55 0.2-64.53-26.66-64.74-59.98V-37.22h-64.36V564.8c-0.21 33.28-29.16 60.11-64.66 59.91H127.63c-35.33 0.39-64.32-26.14-64.74-59.26v-602.38H30.54c-17.71-0.81-31.37-14.93-30.5-31.53 0.81-15.47 14-27.84 30.5-28.59h962.92c17.71 0.81 31.37 14.93 30.5 31.53-0.81 15.47-14 27.84-30.5 28.59l0.08-0.29z"  horiz-adv-x="1024" />

    
    <glyph glyph-name="icon-xmgl" unicode="&#58909;" d="M934.03-40.25l0.07-0.24V673.35c0 85.66-58.79 79.29-58.79 79.29H543.57a43.829 43.829 0 0 0-30.7 12.66S498.9 797 473.18 847.82C449.62 904.93 419.46 895.4 419.46 895.4H162.48C89.41 895.33 89.41 803.38 89.41 803.38v-837.25c0-104.62 58.79-92.11 58.79-92.11h734.1c61.4 0 51.73 85.73 51.73 85.73zM337.38 130.63c-8.1-8.09-19.27-13.13-31.55-13.13-24.58 0-44.69 20.11-44.69 44.69 0 12.29 5.03 23.45 13.13 31.55 8.1 8.1 19.27 13.13 31.56 13.13s23.45-5.02 31.55-13.13c8.1-8.1 13.13-19.27 13.13-31.55 0-12.29-5.02-23.46-13.13-31.56z m0 276.92c-8.1-8.1-19.27-13.13-31.55-13.13-24.58 0-44.69 20.11-44.69 44.69 0 12.29 5.03 23.46 13.13 31.55 8.1 8.09 19.27 13.13 31.56 13.13s23.45-5.03 31.55-13.13c8.1-8.09 13.13-19.27 13.13-31.55 0-12.28-5.02-23.46-13.13-31.56zM770.65 127.5c-8.44-8.43-20.07-13.66-32.86-13.66H473.91c-25.59 0-46.52 20.93-46.52 46.52 0 12.79 5.23 24.42 13.66 32.85s20.06 13.66 32.86 13.66h263.88c25.59 0 46.52-20.93 46.52-46.51 0-12.8-5.23-24.43-13.66-32.86z m0 276.92c-8.44-8.43-20.07-13.66-32.86-13.66H473.91c-25.59 0-46.52 20.93-46.52 46.52 0 12.79 5.23 24.42 13.66 32.85s20.06 13.66 32.86 13.66h263.88c25.59 0 46.52-20.93 46.52-46.51 0-12.79-5.23-24.42-13.66-32.86z"  horiz-adv-x="1024" />

    
    <glyph glyph-name="icon-fuwushang" unicode="&#58910;" d="M973.0025 557.603c-61.97 68.88-168.05 74.49-236.93 12.54a166.7 166.7 0 0 1-12.54-12.54l-109-117.28-0.92-0.92-0.6-0.66c-2.31-2.38-4.71-4.71-7.09-6.63-55.29-51.72-142.05-48.82-193.77 6.49a71.62 71.62 0 0 0-1.89 2.05l-109 117.28c-61.89 68.91-167.92 74.61-236.83 12.72-4.46-4.01-8.7-8.25-12.72-12.72-68.95-76.21-68.95-192.28 0-268.49l43.21-46.38 292.67-314.93c61.89-68.91 167.92-74.61 236.83-12.72 4.46 4.01 8.7 8.25 12.72 12.72l335.88 361.39c68.41 76.07 68.1 191.76-0.02 268.08zM513.3525 746.443m-149.09 0a149.09 149.09 0 1 1 298.18 0 149.09 149.09 0 1 1-298.18 0ZM606.5825 392.883c3.25 2.85 5.44 4.9 6.63 5.9l-6.63-5.9z"  horiz-adv-x="1024" />

    
    <glyph glyph-name="icon-fuwushangxxgl" unicode="&#58911;" d="M299.080025 544.969921c-0.6 0-1.2-0.01-1.8-0.04h422.289951c0.45 0.03 0.9 0.04 1.35 0.04H299.080025zM849.33996 808.28989h-25.979996c0-80.739991-58.069993-146.199983-129.699985-146.199983H330.340021c-71.629992 0-129.689985 65.459992-129.689985 146.199983h-25.979996c-57.319993 0-103.789988-52.379994-103.789988-116.989986V-11.000014c0-64.619992 46.469995-116.999986 103.789988-116.999986h674.66992c57.319993 0 103.779988 52.379994 103.779988 116.999986V691.299904c0 64.609992-46.459995 116.989986-103.779988 116.989986z m-91.409989-735.109914c-8.469999-8.469999-20.149998-13.729998-33.009996-13.729998H299.080025c-20.379998 0-37.809996 13.219998-44.169995 31.489996a46.487995 46.487995 0 0 0-2.57 15.249999c0 5.339999 0.91 10.479999 2.58 15.259998 2.34 6.749999 6.199999 12.799999 11.149999 17.749998 8.469999 8.469999 20.149998 13.729998 33.009996 13.729998h425.83995c25.709997 0 46.739995-21.029998 46.739995-46.739994 0-12.849998-5.259999-24.539997-13.729999-33.009997z m0 196.019977c-8.469999-8.469999-20.149998-13.729998-33.009996-13.729998H299.080025c-25.649997 0-46.649995 20.949998-46.739995 46.569995v0.17c0 12.859998 5.259999 24.539997 13.729999 33.009996 1.51 1.51 3.12 2.91 4.819999 4.199999 7.849999 5.979999 17.619998 9.529999 28.189997 9.529999h425.83995c25.709997 0 46.739995-21.029998 46.739995-46.739994 0-12.849998-5.259999-24.539997-13.729999-33.009997z m0 196.019977c-8.469999-8.469999-20.149998-13.729998-33.009996-13.729998H299.080025c-25.709997 0-46.739995 21.039998-46.739995 46.739995 0 2.34 0.17 4.649999 0.51 6.899999 1.51 10.109999 6.289999 19.179998 13.219999 26.109997 8.069999 8.069999 19.059998 13.229998 31.209996 13.689998 0.6 0.03 1.2 0.04 1.8 0.04h425.83995c25.709997 0 46.739995-21.029998 46.739995-46.739994 0-12.849998-5.259999-24.539997-13.729999-33.009997zM330.340021 895.99988h363.319958c43.009995 0.08 77.929991-39.159995 77.999991-87.63999 0.07-48.479994-34.739996-87.84999-77.739991-87.929989H330.340021c-43.009995-0.08-77.929991 39.159995-77.999991 87.639989C252.27003 856.549885 287.070026 895.91988 330.080021 895.99988h0.26z"  horiz-adv-x="1024" />

    
    <glyph glyph-name="butie" unicode="&#58989;" d="M383.6 637.4h244.6c75.6 0 133.4 164 133.4 164 0 49.2-5 86.4-89 89-84 2.6-104.2-58.8-164.4-58.8-61.8 0-92.8 48.2-169 58.8-76.2 10.6-89-39.8-89-89 0 0 57.8-164 133.4-164z m258-50.8h-258C98.2 586.6 28 25.6 28 25.6 28-48 87.8-122 161.4-122h702.4c73.6 0 133.4 74 133.4 147.6 0 0-70.2 561-355.6 561z m29.2-431c17.2 0 31.2-14 31.2-31.2s-14-31.2-31.2-31.2h-126.4v-81.8c0-17.2-14-31.2-31.2-31.2s-31.2 14-31.2 31.2v81.8h-127.2c-17.2 0-31.2 14-31.2 31.2s14 31.2 31.2 31.2H482v39.6h-127.2c-17.2 0-31.2 14-31.2 31.2s14 31.2 31.2 31.2h86l-88 156.6c-8.6 15-3.4 34 11.4 42.6 15 8.6 34 3.6 42.6-11.4l106-187.8h5.4l106 187.8c8.6 14.8 27.6 20 42.6 11.4s20-27.6 11.4-42.6l-88-156.6h80.8c17.2 0 31.2-14 31.2-31.2s-14-31.2-31.2-31.2h-126.4v-39.6h126.2z m0 0"  horiz-adv-x="1024" />

    
    <glyph glyph-name="sjgl" unicode="&#58988;" d="M987.8 460.6c-71-81.2-249.6-139-459.2-139-5.2 0-10 0.2-15.2 0.4-5.2-0.2-10-0.4-15.2-0.4-209.8 0-388.2 57.8-459.2 139-1-1-2-2.2-3-3.2v-149c69.2-82.8 249.6-142.2 462.2-142.2 5.2 0 10 0.2 15.4 0.4 5 0 10-0.4 15-0.4 212.6 0 393.2 59.4 462.2 142.2v149c-0.8 1-2 2.2-3 3.2zM528.6 894c-5.2 0-10-0.2-15-0.4-5.2 0-10.2 0.4-15.4 0.4C285.6 894 105.2 834.6 36 751.8v-148.8c1-1.2 2-2.2 3-3.2 71.2-81.2 249.4-139 459.2-139 5.2 0 10 0.2 15.4 0.4 5-0.2 10-0.4 15-0.4 209.8 0 388.2 57.8 459.2 139.2 1 1 2 2 2.8 3.2V751.8C921.6 834.6 741.2 894 528.6 894z m459.2-727.6c-71-81.2-249.6-139-459.2-139-5.2 0-10 0.2-15.2 0.4-5.2-0.2-10-0.4-15.2-0.4-209.8 0-388.2 57.8-459.2 139-1-1-2-2-3-3.2v-148.8C105.2-68.6 285.6-128 498.2-128c5.2 0 10 0.4 15.4 0.4 5 0 10-0.4 15-0.4 212.6 0 393.2 59.4 462.2 142.2v148.8c-0.8 1.2-2 2.2-3 3.4z m0 0"  horiz-adv-x="1024" />

    
    <glyph glyph-name="xxfb" unicode="&#58987;" d="M695 444.8c-152.6 0-276.2-123.4-276.2-276.2 0-152.6 123.4-276.2 276.2-276.2s276 123.6 276 276.4c0 152.6-123.4 276-276 276z m145.8-291.6l-120-121.8c-13.8-13.8-36-3.4-36 15.4V76c0 12-10.2 20.6-20.6 20.6h-99.4c-12 0-20.6 10.2-20.6 20.6v101.2c0 12 10.2 20.6 20.6 20.6h97.8c12 0 20.6 10.2 20.6 20.6v29.2c0 18.8 22.2 29.2 36 15.4l120-121.8c10.2-6.8 10.2-20.6 1.6-29.2z m0 0M362.2 156.8c0 3.4-3.4 6.8-6.8 6.8h-103c-13.8 0-24 10.2-24 24s10.2 24 24 24h106.4c3.4 0 6.8 3.4 6.8 6.8 6.8 39.4 18.8 77.2 39.4 111.4 3.4 5.2 0 10.2-6.8 10.2h-145.8c-13.8 0-24 10.2-24 24s10.2 24 24 24h192.2c1.8 0 3.4 0 5.2 1.8 58.4 61.8 142.4 101.2 233.2 101.2 49.8 0 97.8-12 140.6-32.6 5.2-1.8 10.2 1.8 10.2 6.8V818.8c0 42.8-34.4 77.2-77.2 77.2H127.2C84.4 896 50 861.6 50 818.8v-869.6c0-42.8 34.4-77.2 77.2-77.2h401.4c6.8 0 10.2 10.2 3.4 13.8-97.8 51.4-164.6 154.2-169.8 271zM252.4 740h391c13.8 0 24-10.2 24-24s-10.2-24-24-24H252.4c-13.8 0-24 10.2-24 24 0 13.6 10.2 24 24 24z m0-176.8h391c13.8 0 24-10.2 24-24s-10.2-24-24-24H252.4c-13.8 0-24 10.2-24 24s10.2 24 24 24z m0 0"  horiz-adv-x="1024" />

    
    <glyph glyph-name="wenjuan" unicode="&#58981;" d="M886 896H143.6C106.4 896 76 867.2 76 831.8v-938c0-14.6 14-24.8 28-20.6l404.4 124.4c4.2 1.2 8.6 1.2 12.6 0l404.6-124.4c13.8-4.2 28 6.2 28 20.6v938C953.6 867.2 923.4 896 886 896zM551.2 194.8c-9.8-9.8-21.8-14.6-36.2-14.6-14.6 0-26.6 4.8-36.2 14.6-9.8 9.8-14.6 21.6-14.6 35.4 0 14.6 4.8 26.6 14.6 36.2 9.8 9.8 21.8 14.6 36.2 14.6 14.6 0 26.6-4.8 36.2-14.6 9.8-9.8 14.6-21.8 14.6-36.2 0-14-5-25.8-14.6-35.4z m130 346.2c-5-19.4-11.6-37.2-23.8-52.6-12.2-15.4-25.6-29.2-40-41.4-13-11-26.2-22.2-39.2-33.4-11.6-10-17.2-19.4-16.8-28.4v-20c0.6-10-3-19-10.4-26.6-7.2-7.4-17-11.6-29.2-12.4h-2.6c-12.2 0.8-22 4.8-29.6 12-7.8 7.6-9.6 13.6-11.6 23.8-2.6 12.2-0.8 31.8-0.8 31.8 0.6 11 3.8 21.4 9.6 30.8 5.8 9.4 13 18.2 21.6 26.2 8.6 8 17.8 15.8 27.4 23.4 9.8 7.6 19 15 27.4 22.6 8.6 7.6 15.8 15.4 21.2 23.4 5.6 8 8.4 16.8 8.4 26.2 1.2 19-5.8 34.6-20.8 47.2-15 12.4-35 18.8-60 18.8-12.8 0-24.4-3-34.6-9.2-10.2-6.2-19-13.6-26.2-22.6-7.2-8.8-12.8-18.2-17.2-28-4.2-9.8-6.2-18-6.2-24.6 0-11-4.2-19.6-12.4-25.4-8.4-5.8-17.6-8.6-27.4-8.4-10 0.4-19.4 3.8-28 10.4-8.6 6.6-13.2 17.2-13.8 31.8-0.6 12.2 2 27.4 7.6 45.4s15.4 35.6 29.2 52.6c14 17 32.2 31.4 54.6 43.4 22.6 12 50.8 18 84.8 18 27.2 0 51-4 71.4-12 20.4-8 36.8-19 49.6-32.6 12.8-13.6 22.4-23.2 32.2-48 10.6-27 8.6-50.2 5.6-62.2z m0 0"  horiz-adv-x="1024" />

    
    <glyph glyph-name="baobiao" unicode="&#58973;" d="M636.4 22.600000000000023h-113.2c-13.8 0-25 11.2-25 25V464c0 9.4 5.2 17.8 13.6 22.2l113.2 58.4c16.6 8.6 36.4-3.4 36.4-22.2v-474.8c0-13.8-11.2-25-25-25zM292.2 22.600000000000023H165.8c-10.2 0-18.4 8.2-18.4 18.4V287.79999999999995c0 6.8 3.8 13.2 10 16.4l126.4 65c12.2 6.2 26.8-2.6 26.8-16.4v-311.6c0-10.4-8.4-18.6-18.4-18.6zM862 666.2l118 60.8c15.8 8.2 34.4-3.4 34.4-21l-1.8-659.8c0-13-10.6-23.6-23.6-23.6h-116c-13 0-23.6 10.6-23.6 23.6V645.2c-0.2 9 4.8 17 12.6 21zM754.2 893.2h234.4c13.8 0 24.8-11.2 24.8-24.8v-36.6c0-9.4-5.2-17.8-13.6-22.2L182.6 389.4c-16.6-8.6-36.2 3.6-36.2 22.2v25.4c0 9.4 5.2 17.8 13.6 22.2L772.6 774c23.2 12 14.8 47-11.4 47h-7c-13.8 0-24.8 11.2-24.8 24.8V868.4c0 13.6 11.2 24.8 24.8 24.8zM27.4 893.2h31.6c15.2 0 27.4-12.2 27.4-27.4v-880c0-15.2 12.2-27.4 27.4-27.4h879.8c15.2 0 27.4-12.2 27.4-27.4v-31.6c0-15.2-12.2-27.4-27.4-27.4H27.4C12.2-128 0-115.79999999999995 0-100.60000000000002V865.8C0 881 12.2 893.2 27.4 893.2z"  horiz-adv-x="1637" />

    
    <glyph glyph-name="guanlian" unicode="&#58974;" d="M84.2 243.79999999999995h100.2c14.6 0 26.4-11.8 26.4-26.4v-4.6c0-14.6-11.8-26.4-26.4-26.4h-158C11.8 186.20000000000005 0 198 0 212.79999999999995V839.6C0 854.2 11.8 866 26.4 866h661.4c14.6 0 26.4-11.8 26.4-26.4v-626.8c0-14.6-11.8-26.4-26.4-26.4h-212c-14.6 0-26.4 11.8-26.4 26.4v4.6c0 14.6 11.8 26.4 26.4 26.4h154.4c14.6 0 26.4 11.8 26.4 26.4V781.8c0 14.6-11.8 26.4-26.4 26.4h-546c-14.6 0-26.4-11.8-26.4-26.4v-511.6c-0.2-14.6 11.6-26.4 26.4-26.4z m714.2 318.6v-4.6c0-14.6 11.8-26.4 26.4-26.4h115c14.6 0 26.4-11.8 26.4-26.4v-511.6c0-14.6-11.8-26.4-26.4-26.4h-546c-14.6 0-26.4 11.8-26.4 26.4V504.8c0 14.6 11.8 26.4 26.4 26.4h139.8c14.6 0 26.4 11.8 26.4 26.4v4.6c0 14.6-11.8 26.4-26.4 26.4h-197.4c-14.6 0-26.4-11.8-26.4-26.4v-626.8c0-14.6 11.8-26.4 26.4-26.4h661.4c14.6 0 26.4 11.8 26.4 26.4V562.4c0 14.6-11.8 26.4-26.4 26.4h-172.6c-14.6 0.2-26.6-11.8-26.6-26.4z m0 26.6"  horiz-adv-x="1422" />

    
    <glyph glyph-name="pingu" unicode="&#58975;" d="M882.238439 895.400585H132.570537C114.388293 895.400585 97.205073 888.20761 84.417561 875.420098c-12.787512-12.787512-19.980488-30.170537-19.980488-48.152976v-885.735024c0-17.982439 7.192976-35.365463 19.980488-48.152976 12.787512-12.787512 30.170537-19.980488 48.152976-19.980488H711.804878l238.567024 238.36722V827.267122c0 37.563317-30.570146 68.133463-68.133463 68.133463z m-647.367805-127.875122h383.625366c28.372293 0 42.758244-14.186146 42.758244-42.558439 0-28.372293-14.985366-42.558439-42.758244-42.558439h-383.625366c-28.372293 0-42.558439 14.186146-42.558439 42.558439 0 28.372293 14.186146 42.558439 42.558439 42.558439zM192.312195 554.733268c0 28.372293 14.186146 42.558439 42.558439 42.558439h212.992c28.372293 0 42.558439-14.186146 42.558439-42.558439 0-28.372293-14.186146-42.558439-42.558439-42.758244H234.870634c-28.372293 0-42.558439 13.986341-42.558439 42.758244z m182.022244-553.259707l-91.310829 4.995122-5.194927 91.310829L644.470634 464.421463l96.305951-96.305951-366.442146-366.641951z m438.771512 438.771512l-48.152975-48.152975-96.505756 96.305951 48.152975 48.152975 0.599415 0.599415c13.386927 12.987317 34.766049 12.787512 47.753366-0.599415l48.152975-48.152975c6.393756-6.393756 9.990244-14.985366 9.990244-23.976586s-3.596488-17.782634-9.990244-24.17639z m0 0M711.804878-126.80117099999995l238.567024 238.36722h-153.450146c-22.577951 0-44.156878-8.99122-60.141268-24.97561S711.804878 49.02712199999996 711.804878 26.44917099999998v-153.250342z m0 0"  horiz-adv-x="1422" />

    
    <glyph glyph-name="shanchu" unicode="&#58976;" d="M799.4 27c0-36-27-62.8-62.8-62.8H287.6c-36 0-62.8 27-62.8 62.8v660h574.6v-660zM350.4 794.8c0 9 4.6 13.6 13.6 13.6h300.8c9 0 13.6-4.6 13.6-13.6v-36H354.8c-4.4 0-4.4 36-4.4 36z m633-36H745.6v36c0 49.4-40.4 85.2-85.2 85.2H359.4c-49.4 0-85.2-40.4-85.2-85.2v-36h-238c-22.4 0-36-18-36-36 0-17.8 17.8-36 36-36h112.2v-660c0-76.2 62.8-139.2 139.2-139.2h449c76.2 0 139.2 62.8 139.2 139.2v660H988c22.4 0 36 17.8 36 36-0.2 18-18.2 36-40.6 36zM512 76.39999999999998c22.4 0 36 17.8 36 36V512c0 22.4-17.8 36-36 36-17.8 0-36-17.8-36-36v-399.4c0.2-18.2 13.4-36.2 36-36.2m-175 0c22.4 0 36 17.8 36 36V512c0 22.4-17.8 36-36 36-17.8 0-36-17.8-36-36v-399.4c0-18.2 18-36.2 36-36.2m350.2 0c22.4 0 36 17.8 36 36V512c0 22.4-17.8 36-36 36-17.8 0-36-17.8-36-36v-399.4c0-18.2 13.4-36.2 36-36.2"  horiz-adv-x="1167" />

    
    <glyph glyph-name="jichu" unicode="&#58977;" d="M265.6 643c0-113.4 92-205 205-205s205 92 205 205C675.4 756 583.6 848 470.6 848S265.6 756.6 265.6 643z m348.6-267.2c-46.6 15.4-95 23-144.2 23-258.6 0-468-209.6-468-468h597.4c-47.6 60.8-73.6 136-73.6 213-0.6 85.8 31.2 168.2 88.4 232z m0 0M1022 172.39999999999998c-2 9.8-9.8 17.8-19.4 20.4l-6.6 1.6c-34.2 10.2-54.6 46-46.6 80.8l2 6.6c2.6 9.8-0.6 20.4-8.2 27 0 0-6.6 5.6-24.6 15.8-8.2 5.2-16.8 9.2-25.6 13.2-9.8 3-20 0.6-27.6-6.6l-4.6-5.2c-12.2-11.2-28.6-18.4-46.6-18.4-17.8 0-34.8 7.2-46.4 18.4l-4.6 5.2c-7.2 7.2-17.8 9.8-27.6 6.6 0 0-7.6-3-26-13.2-17.8-10.8-24.6-15.8-24.6-15.8-7.2-7.2-10.2-17.4-8.2-27l2-6.6c8.2-35.2-12.2-70.6-46.4-80.8l-6.6-1.6c-9.8-2.6-17.4-10.8-19.4-20.4 0 0-1.6-8.2-1.6-29.2s1.6-29.2 1.6-29.2c2-9.8 9.8-17.8 19.4-20.4l6.6-1.6c34.8-10.2 55.2-46 46.4-80.8l-2-6.2c-2.6-9.8 0.6-20.4 8.2-27 0 0 6.6-5.6 24.6-15.8 17.8-10.2 25.6-13.2 25.6-13.2 9.8-3 20.4-0.6 27.6 6.6l4.6 5.2c26 25 67.4 25 93.6 0l4.6-5.2c6.2-6.6 19-9.8 27.6-6.6 0 0 7.6 3 26 13.2 17.8 10.2 24.6 15.8 24.6 15.8 7.2 7.2 10.2 17.4 8.2 27l-2 6.6c-8.2 34.8 12.2 70.6 46.6 80.8l6.6 1.6c9.8 2.6 17.4 10.8 19.4 20.4 0 0 1.6 8.2 1.6 29.2-0.8 20.2-2.2 28.8-2.2 28.8z m-207.6-123.6c-52.2 0-94.6 42.4-94.6 94.6 0 52.2 42.4 94.6 94.6 94.6 52.2 0 94.6-42.4 94.6-94.6 0-52.2-42.4-94.6-94.6-94.6z m0 0"  horiz-adv-x="1365" />

    
    <glyph glyph-name="feiyong" unicode="&#58978;" d="M86.8 896c-1.4-0.2-2.6-0.8-4.2-0.8h4.2V896z m383.8-436.8h-122.8c-22 0-39.8 17.6-39.8 39.2s17.8 39.2 39.8 39.2h121.6l-1 1-104.2 88c-7.8 7-12.2 16.8-12.6 27.2-0.4 10.4 3.4 20.6 10.6 28.2 14.2 15 37.4 16.6 53.8 4l92-77.6 95.4 76c16.8 13.6 41.8 11 55.6-5.6 0.2-0.2 0.2-0.2 0.2-0.4 13.8-16.8 11.2-41.4-5.8-54.8l-0.2-0.2-103.2-82.2v-3.6h120.4c22 0 39.8-17.6 39.8-39.2s-17.8-39.2-39.8-39.2H550v-78.2h78c22 0 39.8-17.4 39.8-39.2 0-21.6-17.8-39.2-39.8-39.2h-78v-117.2c0.8-21.6-16.4-39.8-38.2-40.6-22-0.8-40.4 16-41 37.6v120.4H390c-22 0.8-39 19-38.2 40.6 0.8 20.6 17.4 37 38.2 37.6h80.6v78.2zM915 891.6h-812c-20.4 0-36.8-16.4-36.8-36.4V-90c0-31.6 38.2-48.2 62-26.6l178 107.8 178-107.8c14.2-12.8 35.8-12.8 50 0l178 107.8 178-107.8c15-13.6 38.4-12.6 52.2 2.2 6.2 6.8 9.6 15.6 9.6 24.6V855.2c-0.2 20.2-16.6 36.4-37 36.4z m0 0"  horiz-adv-x="1242" />

    
    <glyph glyph-name="bianji" unicode="&#58979;" d="M540.8 355.4L989 800c15.4 15.2 15.4 40 0 55.2-15.4 15.2-40.4 15.2-55.6 0L485.2 410.4c-15.4-15.2-15.4-40 0-55.4 15.4-15 40.2-15 55.6 0.4z m0 0M513 890H88C40.6 889.8 2.2 851.6 2 804.6v-843.2c0.2-47 38.6-85.2 86-85.4h850c47.4 0.2 85.8 38.4 86 85.4V383c0 14-7.4 26.8-19.8 33.8-12.2 7-27.2 7-39.4 0s-19.6-20-19.6-33.8v-421.6c-0.2-4-3.4-7.2-7.4-7.4H88c-4 0.2-7.2 3.4-7.4 7.4V804.6c0.2 4 3.4 7.2 7.4 7.4h425c21.6 0 39.4 17.6 39.4 39S534.8 890 513 890z m0 0"  horiz-adv-x="1180" />

    
    <glyph glyph-name="ruyuan" unicode="&#58980;" d="M912.6 826c0.2 18.6-8 37-21.6 49.8-11.6 11-27 17.4-42.8 18.4H310.8v-229.6c-29 19.6-58 39.2-86.8 58.8-28.2-19-56.6-38.2-84.8-57.4V894.2H124c-16-1.2-31.6-7.8-43.2-18.8-12.8-12-20.4-29-21.2-46.6v-889.2c1.2-16.4 8-32.2 19.4-43.8 11.8-12.2 28.2-19.4 45-20.6h325.2c10 34 19.6 68 29.8 101.8 4.4 6 9.8 11.2 14.8 16.8l368 368c9.6 9 19.8 17.4 28.8 26.8l22.2 22.2c-0.2 138.4-0.2 276.8-0.2 415.2zM449 549.6h83.4l-9.8 36.6 38.2 6.4c3.6-10.6 8.2-28.8 11.8-43H656v-82.6h-25.6v-29.2h-156v29.2h-25.6v82.6zM390.8 300l-14.6 38.2 10.2 1.6c20.8 3.2 25.6 8.2 25.6 32.6 0 21.6-6.2 43-26.8 72.8 10.6 30 19 60.2 25.6 90.2h-39v-299.6H338V572.6h107.4V536c-7.4-28-15-55.2-25.6-83 20-34.2 28-61 28-92.2 0-43.4-10.2-51.2-47.2-58.6l-9.8-2.2z m279.4-18.8c-4.4-33.4-15-42.6-44.8-42.6h-26.4c-30.4 0-39.8 9-39.8 42.6v81.6h-33.8v-4.4c-2-65-18.2-91.4-79.2-132.4l-26.4 28.8c57 33.8 67.4 52.8 69.4 106.8v1.2h-37.4V398h205.6v-35.4h-61.8v-71.2c0-13 3.6-15 14.6-15h14.2c12.2 0 13.8 4 15.4 17.8 1.2 10.6 2 20.4 2.4 29.6l31.2-11c-0.8-11.6-2-19-3.2-31.6zM485.2 514.2h135v-41h-135zM864.8 300.20000000000005c4.2 4.6 9.8 8.4 15.8 9.8 9 2.4 19-0.2 25.6-6.8 22-22 44-43.8 66-66 10-10.6 8-28.6-2.2-38.4l0.8-1.6c-10.4-10.2-20.6-20.6-31-30.8-34.8 34.8-69.8 69.6-104.6 104.6 10 9.6 20 19.4 29.6 29.2zM824.2 260.79999999999995c35-34.8 69.8-69.6 104.6-104.6-76.4-76.2-152.6-152.6-229-229-34.8 34.8-69.8 69.6-104.4 104.6 76.2 76.4 152.4 152.8 228.8 229zM710.8-125c67.4 67.2 134.4 134.4 201.8 201.6v-133.4c0-18.8-8-37.2-21.8-50-11.4-10.8-26.8-17.2-42.6-18.4h-137.4zM543-125c14 48.6 28.2 97.2 42.4 145.6L690-84c-49.2-13.6-98-27.4-147-41z"  horiz-adv-x="1478" />

    
    <glyph glyph-name="dxgl" unicode="&#58960;" d="M1162.629074 896H138.816551c-70.303918 0-127.296961-57.555474-127.296961-128.046869l-0.749909-767.906262c0-70.303918 57.555474-128.046869 128.04687-128.046869h1023.812523c70.303918 0 128.046869 57.555474 128.046869 128.046869V767.953131c0 70.491395-57.742951 128.046869-128.046869 128.046869z m0-255.906261L650.629074 320.070304l-511.812523 320.023435V767.953131L650.816551 447.929696l511.812523 320.023435v-127.859392z m0 0"  horiz-adv-x="1365" />

    
    <glyph glyph-name="jkxw" unicode="&#58943;" d="M1109.761533 771.208576C1042.603406 851.604603 949.938105 896 821.433612 896c0 0-132.217563-15.013716-205.99464-42.135267-73.131326 26.960114-143.356771 41.328078-208.739082 41.328078-115.589469 0-215.842346-43.588207-282.51616-123.177046-72.162699-86.369226-99.930002-207.44758-76.198644-332.561879 18.888223-99.445688 105.741763-301.888696 473.819959-539.686583 7.264701-5.004572 42.942456-27.767303 85.884913-27.767303 43.42677 0 82.979032 24.538546 87.337853 27.282989 384.060539 237.152136 473.658521 440.240895 492.86962 540.170897 23.892795 124.629986-5.973199 245.385464-78.135898 331.75469z m-91.696674-353.225918h-99.122812l-48.59278-125.921488c-3.551632-9.040517-12.430711-14.852278-22.116979-14.206527-9.686268 0.645751-17.919596 7.426139-20.179726 16.789532L791.890494 440.099637l-57.148983-148.038467c-3.390194-8.717641-12.107835-14.367965-21.309791-14.206527-9.363393 0.161438-17.596721 6.457512-20.502601 15.336591L617.537664 525.177361l-65.543749-231.178938c-2.583005-9.201955-10.816333-15.659467-20.341164-16.14378-9.524831-0.484313-18.242472 5.16601-21.794103 14.045089l-61.669242 157.40186-61.669242-157.40186c-0.484313-1.291502-1.291502-2.260129-1.937253-3.228756 0-0.161438-0.161438-0.322876-0.161438-0.322876-3.067318-4.843134-7.749015-8.394766-13.2379-9.686268-0.161438 0-0.322876-0.161438-0.322876-0.161438-1.291502-0.322876-2.583005-0.322876-4.035945-0.484313-0.322876 0-0.645751-0.161438-0.968627-0.161438H365.694687h-0.161437c-2.744443 0-5.327448 0.645751-7.910453 1.614378-2.583005 0.968627-5.004572 2.583005-7.103263 4.520259-0.161438 0.161438-0.484313 0.484313-0.645752 0.807189-1.937254 1.937254-3.551632 4.358821-4.520258 6.941825-0.484313 1.130065-1.130065 2.098691-1.45294 3.228756L314.357465 418.144096h-96.862683c-12.269273 0-22.278417 10.009144-22.278417 22.278417 0 12.269273 10.009144 22.278417 22.278417 22.278417H331.792748c10.33202 0 19.211099-7.103263 21.632666-17.112407l17.273845-71.839824 56.826108 144.809712c3.390194 8.556204 11.623522 14.206527 20.664039 14.045089 9.201955 0 17.435283-5.650323 20.664039-14.045089L527.132493 369.712754l67.481003 237.959325c2.744443 9.363393 11.139209 15.982343 20.986914 16.143781 9.847706 0.322876 18.565348-5.973199 21.632666-15.336592L715.853287 366.483998l59.893426 155.303169c3.551632 9.040517 12.430711 14.852278 22.11698 14.206527 9.686268-0.645751 17.919596-7.426139 20.179725-16.789532l36.162069-145.455463 28.735929 74.584266c3.228756 8.556204 11.623522 14.206527 20.825477 14.206527h114.297966c12.269273 0 22.278417-10.009144 22.278417-22.278417 0-12.269273-10.009144-22.278417-22.278417-22.278417z m0 0"  horiz-adv-x="1432" />

    
    <glyph glyph-name="lnhds" unicode="&#58944;" d="M782.83886 537.489085h-1.87702v61.429762c0 22.524246-18.25829 40.953174-40.953175 40.953174H53.872355c-22.524246 0-40.953174-18.25829-40.953175-40.953174v-583.582736c0-79.176137 64.159973-143.336111 143.336111-143.336111h481.541076c79.176137 0 143.336111 64.159973 143.336111 143.336111v18.428928c0.511915 0 1.365106-0.341276 1.87702-0.341276 138.899517 0 253.056491 112.962506 253.056491 252.032661-0.341276 139.070155-114.49825 252.032661-253.227129 252.032661z m0-401.511748c-0.511915 0-1.365106 0-1.87702 0.341277V435.106149c0.511915 0 1.365106 0.341276 1.87702 0.341276 82.418264 0 150.673554-67.231461 150.673555-149.649725 0-82.418264-68.255291-149.820363-150.673555-149.820363zM268.876521 896c28.325946 0 51.191468-22.865522 51.191468-51.191468v-51.362106c0-28.325946-22.865522-51.191468-51.191468-51.191468s-51.191468 22.865522-51.191469 51.191468V844.808532c0 28.325946 22.865522 51.191468 51.191469 51.191468zM524.663223 896c28.325946 0 51.191468-22.865522 51.191468-51.191468v-51.362106c0-28.325946-22.865522-51.191468-51.191468-51.191468s-51.191468 22.865522-51.191468 51.191468V844.808532c0 28.325946 23.036161 51.191468 51.191468 51.191468z"  horiz-adv-x="1199" />

    
    <glyph glyph-name="hlz" unicode="&#58945;" d="M659.602545 873.632893c-85.458639 29.82281-178.435634 29.82281-263.894273 0L124.796867 778.776309c-27.943221-10.14978-46.739109-36.589329-47.115027-66.286833v-493.955947c0-3.759178 0.751836-7.518355 2.130201-11.026921 13.53304-34.083211 99.242291-213.395986 437.9442-333.814978 6.515908-2.255507 13.53304-2.255507 19.923642 0 338.576603 120.418992 424.285854 299.731767 437.944199 333.814978 1.378365 3.508566 2.130201 7.267744 2.130201 11.026921V712.489476c0.125306 28.695056-16.9163 54.633382-43.230543 65.910916-0.62653 0.250612-1.378365 0.501224-2.004895 0.751835l-272.9163 94.480666z m71.674988-473.531082h-113.903084c-16.415076 0-29.697504-13.282428-29.697503-29.697504v-133.200195c0-16.415076-13.282428-29.697504-29.697504-29.697504H497.456681c-16.415076 0-29.697504 13.282428-29.697503 29.697504V370.529613c0 16.415076-13.282428 29.697504-29.697504 29.697504H321.276554c-16.415076 0-29.697504 13.282428-29.697504 29.697504v60.52276c0 16.415076 13.282428 29.697504 29.697504 29.697504h116.78512c16.415076 0 29.697504 13.282428 29.697504 29.697504V632.920215c0 16.415076 13.282428 29.697504 29.697503 29.697504h60.522761c16.415076 0 29.697504-13.282428 29.697504-29.697504v-83.328438c0-16.415076 13.282428-29.697504 29.697503-29.697504h113.903084c16.415076 0 29.697504-13.282428 29.697504-29.697504v-60.52276c-0.125306-16.28977-13.407734-29.572198-29.697504-29.572198z m29.572198 0"  horiz-adv-x="1436" />

    
    <glyph glyph-name="sqwsfw" unicode="&#58946;" d="M730.372113 896h-551.014704c-35.618356 0-64.440276-28.82192-64.440276-64.440276v-894.48641c0-34.233897 26.682302-62.552377 60.916198-64.440276H730.372113c34.863196 1.636179 62.804097 29.57708 64.440277 64.440276V830.930424c0.12586 17.242808-6.544716 33.730457-18.627268 45.938869-12.208412 12.208412-28.69606 19.130707-45.813009 19.130707zM417.106787 19.637417c-0.755159-11.075672-9.565353-19.885866-20.641026-20.641026H267.585209c-11.075672 0.755159-19.885866 9.565353-20.641026 20.641026V153.678226c0.50344 11.201532 9.439494 20.137586 20.641026 20.641026H396.465761c11.201532-0.50344 20.137586-9.439494 20.641026-20.641026v-134.040809z m0 240.644156c-0.50344-11.201532-9.439494-20.137586-20.641026-20.641026H267.585209c-11.201532 0.50344-20.137586 9.439494-20.641026 20.641026V394.322382c0.12586 11.075672 8.306754 20.515166 19.382427 21.899625H395.207162c11.075672-0.755159 19.885866-9.565353 20.641026-20.641026l1.258599-135.299408z m34.863196 268.081618c-18.375547-0.37758-33.730457 13.844591-34.737336 32.220138V625.023605H352.666511c-17.746248 0-32.220138 14.47389-32.220138 32.220138v1.636179C320.320513 677.129609 334.416823 692.358659 352.666511 693.365538h64.440276v61.923078c0 17.746248 14.47389 32.220138 32.220138 32.220138h1.636179c8.936054 0.50344 17.620388-2.643058 24.039244-8.684334 6.418856-6.041276 10.068793-14.59975 10.068793-23.535804V690.84834h64.440276c17.746248 0 32.220138-14.47389 32.220138-32.220138 0.12586-0.6293 0.12586-1.258599 0-1.887899 0.6293-8.936054-2.517198-17.746248-8.558474-24.290963-6.167136-6.544716-14.72561-10.194653-23.661664-10.194653h-64.440276v-64.440276c-2.139619-16.739369-16.361789-29.32536-33.101158-29.45122z m202.256882-508.725774c-0.755159-11.075672-9.565353-19.885866-20.641026-20.641026H504.831147c-11.075672 0.755159-19.885866 9.565353-20.641026 20.641026V153.678226c0.50344 11.201532 9.439494 20.137586 20.641026 20.641026h128.880552c11.201532-0.50344 20.137586-9.439494 20.641026-20.641026v-134.040809z m0 240.644156c-0.50344-11.201532-9.439494-20.137586-20.641026-20.641026H504.831147c-11.201532 0.50344-20.137586 9.439494-20.641026 20.641026V394.322382c0.755159 11.075672 9.565353 19.885866 20.641026 20.641026h128.880552c11.075672-0.755159 19.885866-9.565353 20.641026-20.641026v-134.040809z m422.763452 123.720296H826.403228v-511.998131h250.712949c36.499375-0.37758 66.831614 27.940901 68.971233 64.440276V319.561593c-4.530957 35.366636-33.604597 62.426517-69.097093 64.440276z m0 0"  horiz-adv-x="1638" />

    
    <glyph glyph-name="rjzhjg" unicode="&#58947;" d="M1028.5346 397.720488l-138.420624 137.725916c-0.694708 0.694708-1.042062 1.563094-1.042063 2.605156V730.485753c0 11.810041-9.552239 21.36228-21.362279 21.36228H674.407056c-0.868385 0-1.910448 0.347354-2.605156 1.042062l-138.420625 137.725916c-3.473541 3.473541-7.989145 5.383989-12.852103 5.383989-4.862958 0-9.378562-1.910448-12.852103-5.383989l-137.725916-137.725916c-0.694708-0.694708-1.563094-1.042062-2.605156-1.042062H176.474898c-11.810041 0-21.36228-9.552239-21.362279-21.36228v-191.218453c0-0.868385-0.347354-1.910448-1.042063-2.605156L15.649932 397.546811c-3.473541-3.299864-5.383989-7.989145-5.383989-12.852103 0-4.862958 1.910448-9.378562 5.383989-12.852103l138.420624-137.725916c0.694708-0.694708 1.042062-1.563094 1.042063-2.605156v-192.607869c0-11.810041 9.552239-21.36228 21.362279-21.36228h191.218453c1.042062 0 1.910448-0.347354 2.605156-1.042062l139.115333-139.115333c3.299864-3.473541 7.989145-5.383989 12.852103-5.383989 4.862958 0 9.378562 1.910448 12.852103 5.383989l139.115333 139.115333c0.694708 0.694708 1.563094 1.042062 2.605156 1.042062h192.607869c11.810041 0 21.36228 9.552239 21.36228 21.36228V231.858887c0 1.042062 0.347354 1.910448 1.042062 2.605156l137.725916 137.725916c6.078697 6.947083 6.078697 18.409769-1.042062 25.530529z m-507.137042-332.938941c-191.044776 0-342.49118 166.382632-317.481683 362.63772C222.151967 570.529172 335.736771 684.113976 478.846676 702.350068c196.255088 25.009498 362.63772-126.263229 362.63772-317.481683 0-176.455902-142.936228-320.086839-320.086838-320.086838z m0 576.260515c-140.331072 0-254.089552-112.542741-256-252.526458-1.910448-143.630936 116.016282-261.731343 259.647218-259.647219 139.810041 1.910448 252.526459 115.668928 252.526459 256 0 141.546811-114.626866 256.173677-256.173677 256.173677z m0 0"  horiz-adv-x="1178" />

    
    <glyph glyph-name="zcd" unicode="&#58948;" d="M377.32 859.52v-365.76c0-23.2-6.72-44.32-20.32-63.36-13.6-19.04-31.04-32.32-52.8-40v-445.12c0-19.84-7.2-36.8-21.76-51.52-14.56-14.4-31.68-21.76-51.52-21.76H157.8c-19.84 0-36.8 7.2-51.52 21.76-14.4 14.4-21.76 31.68-21.76 51.52V390.56c-21.76 7.52-39.36 20.8-52.8 40C18.12 449.44 11.4 470.56 11.4 493.76V859.52c0 9.92 3.52 18.56 10.88 25.6 7.2 7.2 15.68 10.88 25.6 10.88 9.92 0 18.56-3.52 25.6-10.88 7.2-7.2 10.88-15.84 10.88-25.6v-237.76c0-9.92 3.52-18.56 10.88-25.6 7.2-7.2 15.68-10.88 25.6-10.88 9.92 0 18.56 3.52 25.6 10.88 7.2 7.2 10.88 15.68 10.88 25.6V859.52c0 9.92 3.52 18.56 10.88 25.6 7.2 7.2 15.68 10.88 25.6 10.88 9.92 0 18.56-3.52 25.6-10.88 7.2-7.2 10.88-15.84 10.88-25.6v-237.76c0-9.92 3.52-18.56 10.88-25.6 7.2-7.2 15.68-10.88 25.6-10.88 9.92 0 18.56 3.52 25.6 10.88 7.2 7.2 10.88 15.68 10.88 25.6V859.52c0 9.92 3.52 18.56 10.88 25.6 7.2 7.2 15.68 10.88 25.6 10.88 9.92 0 18.56-3.52 25.6-10.88 8.48-7.2 12-15.68 12-25.6z m438.88 0v-914.24c0-19.84-7.2-36.8-21.76-51.52-14.4-14.4-31.68-21.76-51.52-21.76h-73.28c-19.84 0-36.8 7.2-51.52 21.76-14.56 14.4-21.76 31.68-21.76 51.52v292.8h-127.68c-4.96 0-9.28 1.76-12.8 5.44-3.52 3.52-5.44 8-5.44 12.8V713.28c0 50.24 17.92 93.44 53.6 129.12C540.04 878.08 583.24 896 633.48 896h146.24c9.92 0 18.56-3.52 25.6-10.88 7.2-7.2 10.88-15.68 10.88-25.6z m0 0"  horiz-adv-x="1024" />

    
    <glyph glyph-name="sqylzz" unicode="&#58949;" d="M1168.822858 492.04253L684.995772 871.443073c-41.325572 32.742569-106.174932 32.742569-147.500505 0L57.164961 491.724641c-16.530229-13.03345-19.232286-36.875126-6.357781-53.087466s36.875126-19.232286 53.087467-6.35778l15.576561 12.238727v-458.872798c0-65.008304 67.392472-113.645324 127.632441-113.645324h757.688475c59.445246 0 99.499263 45.617074 99.499263 113.645324V445.789678l17.166007-13.510283c6.834614-5.404113 15.099728-8.10617 23.364843-8.10617 11.126116 0 22.411176 4.768335 29.881567 14.46395 13.510283 16.530229 10.331393 40.371905-5.880946 53.405355zM725.844511 26.970896v-78.995421h-227.290648V160.007451c0 44.027629 35.60357 91.393093 113.645324 91.393092 78.200698 0 113.645324-47.365464 113.645324-91.393092v-133.036555z m0 0"  horiz-adv-x="1435" />

    
    <glyph glyph-name="zhwlfw" unicode="&#58950;" d="M934.506667 6.826667V453.973333c0 17.92-14.506667 32.426667-32.426667 32.426667h-37.546667c-17.92 0-32.426667 14.506667-32.426666 32.426667V658.773333c0 17.92-14.506667 32.426667-32.426667 32.426667h-37.546667c-17.92 0-32.426667 14.506667-32.426666 32.426667v139.946666c0 17.92-14.506667 32.426667-32.426667 32.426667H352.533333c-17.92 0-32.426667-14.506667-32.426666-32.426667v-139.946666c0-17.92-14.506667-32.426667-32.426667-32.426667H250.133333c-17.92 0-32.426667-14.506667-32.426666-32.426667v-139.946666c0-17.92-14.506667-32.426667-32.426667-32.426667H147.733333c-17.92 0-32.426667-14.506667-32.426666-32.426667v-447.146666c0-17.92-14.506667-32.426667-32.426667-32.426667h-37.546667c-17.92 0-32.426667-14.506667-32.426666-32.426667v-37.546666c0-17.92 14.506667-32.426667 32.426666-32.426667h293.717334c17.92 0 32.426667 14.506667 32.426666 32.426667V249.173333c0 17.92 14.506667 32.426667 32.426667 32.426667h242.346667c17.92 0 32.426667-14.506667 32.426666-32.426667v-344.746666c0-17.92 14.506667-32.426667 32.426667-32.426667H1004.48c17.92 0 32.426667 14.506667 32.426667 32.426667v37.546666c0 17.92-14.506667 32.426667-32.426667 32.426667h-37.546667c-17.92 0-32.426667 14.506667-32.426666 32.426667z m0-32.426667M506.133333 179.2h37.717334c17.92 0 32.426667-14.506667 32.426666-32.426667v-242.346666c0-17.92-14.506667-32.426667-32.426666-32.426667H506.133333c-17.92 0-32.426667 14.506667-32.426666 32.426667V146.773333c0.170667 17.92 14.677333 32.426667 32.426666 32.426667z"  horiz-adv-x="1200" />

    
    <glyph glyph-name="ylfjzs" unicode="&#58951;" d="M854.211513 171.431494l-78.683942-30.774903c-3.659718-1.497157-7.98484 0.332702-9.648349 3.99242l-132.581611 292.777461c-1.330807 3.160666-4.824174 4.824174-8.151191 4.325122l-162.35841-27.115186c-1.99621-0.332702-3.826069 0.166351-5.489578 1.164456-26.948834 18.13224-58.222791 28.945044-90.827553 30.941254h-0.665403c-1.829859 0-3.659718 0-5.489578-0.16635-3.99242-0.166351-7.485787 2.827964-7.818489 6.820384l-0.998105 10.313751c-0.332702 4.491472 3.160666 8.317542 7.485788 8.151191l204.112468-0.831754c5.156876 0 8.816594 4.990525 7.153086 9.981049l-23.455467 70.532752c-0.998105 3.160666-3.99242 5.156876-7.153086 5.156876H352.497409c-3.826069 0-7.153086 2.994315-7.485787 6.820384L329.374644 721.387339c-0.332702 3.826069 2.162561 7.319437 5.822279 8.151191 6.487682 1.330807 12.809014 3.327017 18.963995 5.98863 29.776799 14.306171 48.408092 44.582023 47.909039 77.519487-0.332702 30.275851-16.967785 57.890089-43.583918 72.528962-26.449782 14.638873-58.888194 13.807119-84.506222-2.162561-26.948834-17.799539-42.08676-48.740793-39.591497-80.846504 0.332702-6.154981 1.497157-12.143611 3.327016-17.965889 1.99621-5.489577 4.158771-10.979155 6.820384-16.136031 0.332702-0.831754 0.665403-1.663508 0.665404-2.495262L276.142378 424.617458c0.166351-2.661613-0.998105-5.323227-3.327016-6.820384-47.243636-32.438412-75.523277-86.16973-75.190576-143.560767-1.330807-61.050755 30.442202-118.109089 83.175415-149.050343a168.513391 168.513391 0 0 1 170.675952 0c52.733213 30.941254 84.506222 87.999589 83.175415 149.050343 0 20.793854-6.820384 30.774904-14.306171 46.578233-1.99621 4.158771 0.166351 8.982945 4.491472 10.480102l70.532752 23.455467c3.99242 1.330807 8.317542-0.831754 9.481998-4.824174l50.570652-151.878308c0.499052-1.330807 0.499052-2.661613 0.166351-4.158771-2.661613-11.97726-6.321332-23.621818-10.646453-35.100025-28.612343-73.194365-86.16973-131.417156-159.197745-160.694902-83.674468-32.10571-177.829038-21.459257-252.187858 28.612343C112.28681 109.216284 73.194365 270.077537 142.895363 399.165781c13.141716 25.285326 30.1095 48.408092 50.404302 68.536542 12.476312 11.644558 25.451677 22.623713 39.092445 32.937464 1.99621 1.497157 3.160666 3.99242 2.994315 6.487683l-6.321332 101.973059c-0.332702 5.489577-6.321332 8.816594-11.145505 6.15498-28.445992-15.304276-55.394826-33.436517-80.181101-54.23037-56.891984-50.903354-98.313341-116.611932-119.606247-189.972648-8.982945-35.432727-13.97347-71.697208-14.805223-108.12804v-0.499052c0.998105-25.95073 3.493367-51.735108 7.818489-77.353137C38.759743 43.507706 142.396311-71.274367 280.4675-113.361127c34.767324-9.149296 70.532752-13.97347 106.464531-14.638873 35.931779 0.665403 71.530857 5.655928 106.298181 14.805224 69.867349 21.126555 132.24891 61.549807 180.157949 116.611932 12.476312 14.638873 23.621818 30.275851 33.436517 46.578232 3.160666 5.323227 10.979155 4.824174 13.474417-0.831754 1.663508-3.826069 5.98863-5.655928 9.814699-3.99242l150.713852 63.878719c3.826069 1.663508 5.655928 6.154981 3.99242 9.98105l-20.960205 48.574442c-1.497157 3.493367-5.822279 5.323227-9.648348 3.826069z"  horiz-adv-x="1064" />

    
    <glyph glyph-name="dtgl" unicode="&#58940;" d="M662.287481 895.99988a199.419143 199.419143 0 0 1-199.639142-199.419143c0-110.219526 199.639142-359.338456 199.639142-359.338456S861.726624 585.681213 861.726624 696.580737A199.439143 199.439143 0 0 1 662.287481 895.99988z m5.879974-324.098607A130.31944 130.31944 0 1 0 760.467059 610.001109a130.539439 130.539439 0 0 0-92.299604-38.099836z m-247.998934 233.758995H141.729718A96.219587 96.219587 0 0 1 45.73013 709.220683v-312.338658l228.999016-107.499538 135.519418 357.058465a208.359105 208.359105 0 0 0-9.699959 56.919756 258.938887 258.938887 0 0 0 19.639916 102.29956zM908.926421 801.380287a263.278869 263.278869 0 0 0 18.739919-97.999579c0-145.999373-263.998866-474.277962-263.998865-474.277962a2442.529505 2442.529505 0 0 0-192.639172 282.298787l-100.759568-267.198852 607.997388-285.478774V709.220683a95.779588 95.779588 0 0 1-69.7797 92.159604zM45.73013 280.122526V-31.996133a96.679585 96.679585 0 0 1 72.279689-93.0596l119.239488 316.178642zM882.946533-127.99572a93.999596 93.999596 0 0 1 25.079892 3.159986L333.008896 146.183102 229.56934-127.99572z"  horiz-adv-x="1024" />

    
    <glyph glyph-name="fjzl" unicode="&#58941;" d="M597.628622-41.16838l-39.542205 39.522061c-5.881978 5.902122-17.363923 13.738046-19.620024 20.748074-7.292042-1.671932-14.845953-7.553911-22.70202-11.481944-62.445662-31.122112-133.432279-31.96815-192.876521 5.317953-36.158053 22.70202-54.67017 40.932124-76.244138 79.628291a46.129215 46.129215 0 0 0-4.210047 8.399949C219.167622 156.482212 217.999284 215.342284 244.951638 269.730441l13.456033 24.958121L198.137535 356.14718c-5.03594 5.056084-17.384067 15.994147-22.984033 17.666079-2.235958-8.399949-14.866096-20.748075-24.172514-39.804073-4.210046-8.702105-7.574054-12.086257-11.199932-20.748075C122.175409 270.576479 111.237346 237.480279 111.237346 181.420189A311.926154 311.926154 0 0 1 127.493362 82.192018c13.456033-40.10623 29.994062-66.474414 55.234195-98.704434 5.881978-7.574054 12.086257-12.892008 18.773986-19.620024 87.746227-87.746227 208.004486-113.550386 328.846914-73.4643a217.552629 217.552629 0 0 1 45.404039 20.748075c9.245987 5.338097 33.640082 18.512117 39.804074 26.630053-2.739552 10.112168-5.03594 8.158224-17.927948 21.050232zM722.922821 708.461576c13.456033-10.938063 40.972412-17.927948 56.926271-17.927948 25.784015 0 47.639997 8.963974 66.998152 22.984033a9.427281 9.427281 0 0 1 3.364008 3.081995C924.763315 789.479787 865.62123 896 788.531053 896c-22.158138 0-33.640082-0.564025-53.542119-10.65605C704.148835 869.651959 677.277056 830.391767 677.277056 795.643778c0-39.522061 20.143762-66.172258 45.645765-87.182202zM854.401155 451.104874c-38.958036 0-79.044122-3.364008-115.484187-6.163991l-100.376366-4.492059c18.230105 17.384067 83.838337 96.448332 108.212289 122.876948 27.758104 29.712049 35.332158 73.162143 4.774072 105.674175-9.245987 9.810012-71.772224 44.316276-87.746227 53.28025s-30.8401 17.363923-46.330653 26.348041c-3.646021 2.014376-7.292042 3.646021-11.220075 5.881978s-6.728016 4.492059-10.374037 6.728017l-112.885642 64.117594c-34.48612 19.902037-61.398186 36.440065-100.094353-0.564025-24.172514-22.984032-51.286018-42.604056-74.834076-66.152115a121.527316 121.527316 0 0 0-12.348126-11.220075L265.699712 719.661508c-16.538029-13.738046-33.076057-27.73796-33.076057-52.373781v-0.282013c0-57.18814 54.388157-88.310252 105.694319-47.942153l66.71614 59.162229c11.199932 9.245987 22.158138 22.70202 34.747989 29.148023L521.082326 660.317985c-8.963974-13.456033-21.855982-25.784015-32.512032-38.132141l-15.974003-18.129386c-3.928034-4.492059-3.928034-5.338097-7.574054-9.527999l-42.060175-47.821291c-0.261869-0.282013-0.543882-0.846038-0.825894-1.128051s-0.564025-0.846038-0.846038-1.12805l-47.660141-52.696082c-1.128051-0.846038-59.424098-15.691991-80.736198-26.066028-23.266045-11.502088-45.686052-24.394096-65.588089-41.214136-3.928034-3.364008-5.338097-5.056084-8.984118-8.057505-5.03594-3.90789-6.446004-3.646021-6.728016-12.609995a12.086257 12.086257 0 0 0 5.338097-3.081996c12.892008-8.963974 23.83007-22.70202 34.465976-33.922095l37.286104-35.594027c9.527999 2.51797 30.8401 20.748075 43.450094 27.194078 55.516208 27.73796 114.658293 31.101968 172.974484 5.599966 32.794044-14.302071 58.598203-34.48612 79.346278-63.916156 45.686052-65.608233 52.696081-158.108387 5.881979-225.610134-6.163991-8.963974-13.456033-16.538029-19.620024-25.240134l5.03594-5.599966c0.282013-0.282013 0.846038-0.846038 1.128051-0.846038l53.260106-51.56803c6.728016-6.728016 12.086257-16.27616 21.855982-18.79413 13.738046 9.245987 27.194079 30.215643 44.316276 56.402533 20.748075 31.686138 39.260192 88.310252 39.260192 131.760347 0 46.330652-2.538114 93.366337-17.948092 133.734436-8.420092 21.855982-19.620024 26.912066 11.502088 26.630053 12.609995-0.282013 15.691991 1.671932 25.502003 2.235958 9.245987 0.564025 20.466062 0 29.994062 0l-19.338012-254.254564c0-24.394096 29.148024-53.562263 53.542119-53.562263 20.748075 0 36.158053 3.928034 50.460124 15.712135 29.148024 24.394096 23.266045 109.320196 28.040117 145.21638 4.471915 33.35807 2.799983 72.034093 7.55391 107.930276 2.014376 15.691991 2.014376 35.594027 4.492059 53.260107l3.364009 60.834161c-0.584169 26.992641-29.732193 52.776656-58.336335 52.776656zM308.0419 258.228353v-23.548057a7.231611 7.231611 0 0 1 7.271898-7.292042H558.428861a7.332329 7.332329 0 0 1 6.446004 3.928033 7.473336 7.473336 0 0 1-0.825895 7.574055l-50.198254 64.198169a7.151035 7.151035 0 0 1-10.071881 1.128051l-18.572549-14.543796a7.553911 7.553911 0 0 1-2.799983-4.774072A7.07046 7.07046 0 0 1 483.896942 279.600885l11.220075-14.302071h-179.803219a7.171179 7.171179 0 0 1-7.271898-7.070461zM306.631837 155.072148a7.372617 7.372617 0 0 1 0.846038-7.574054l49.332073-63.916157a6.929454 6.929454 0 0 1 5.599965-2.799983 9.225843 9.225843 0 0 1 4.492059 1.410064l18.79413 14.281927a7.473336 7.473336 0 0 1 1.38992 10.071881l-11.220076 14.302071h180.266526a7.231611 7.231611 0 0 1 7.292042 7.292042v23.568201a7.231611 7.231611 0 0 1-7.292042 7.292042H313.359853a6.989885 6.989885 0 0 1-6.728016-3.928034z"  horiz-adv-x="1024" />

    
    <glyph glyph-name="jzyw" unicode="&#58942;" d="M930.811653 290.971925H1023.869779v-418.971925H0.130221V290.971925h93.058126V802.82167h186.116253V896h651.507053z m-92.917888 0V802.82167H372.48293V290.971925h46.519046v-93.058126h186.316593V290.971925z m-558.589165 0V709.683407H186.246473v-418.811652h93.058127z m186.316592 418.711482h279.074208v-93.058126H465.541056z m0-186.116252h279.074208v-93.058126H465.541056z"  horiz-adv-x="1024" />

    
    <glyph glyph-name="next-s" unicode="&#58938;" d="M511.232 706.56C333.738667 706.56 188.586667 561.408 188.586667 383.914667c0-177.408 145.152-322.645333 322.645333-322.645334 177.408 0 322.645333 145.152 322.645333 322.645334 0 177.493333-145.237333 322.645333-322.645333 322.645333z m112.896-346.88l-139.776-142.506667c-13.482667-13.482667-34.986667-13.482667-48.384 0-13.482667 13.482667-13.482667 34.986667 0 48.384l115.626667 115.626667-115.626667 115.626667c-13.482667 13.482667-13.482667 34.986667 0 48.384 13.482667 13.482667 34.986667 13.482667 48.384 0l139.776-139.776c8.021333-8.106667 10.752-16.128 10.752-24.234667 0-5.290667-2.645333-16.042667-10.752-21.504z m0 0"  horiz-adv-x="1024" />

    
    <glyph glyph-name="pre-s" unicode="&#58939;" d="M511.232 706.56C333.738667 706.56 188.586667 561.408 188.586667 383.914667c0-177.408 145.152-322.645333 322.645333-322.645334 177.493333 0 322.645333 145.152 322.645333 322.645334 0 177.493333-145.237333 322.645333-322.645333 322.645333zM398.336 359.68c-8.021333 5.376-10.752 16.128-10.752 21.504 0 8.106667 2.730667 16.128 10.752 24.234667L538.112 545.28c13.482667 13.482667 34.986667 13.482667 48.384 0 13.482667-13.482667 13.482667-34.986667 0-48.384L470.869333 381.269333l115.626667-115.626666c13.482667-13.482667 13.482667-34.986667 0-48.384-13.482667-13.482667-34.986667-13.482667-48.384 0L398.336 359.68z m0 0"  horiz-adv-x="1024" />

    
    <glyph glyph-name="zulindian" unicode="&#58932;" d="M329.216 672.938667v-19.456c0-23.296 15.530667-38.826667 34.986667-38.826667h295.168c19.456 0 34.986667 15.530667 34.986666 38.826667v19.456c0 11.690667-7.765333 19.456-15.530666 19.456H344.746667c-7.765333-0.085333-15.530667-7.850667-15.530667-19.456z m403.882667 19.370666h73.813333c19.456 0 34.986667-15.530667 34.986667-34.986666v-586.410667c0-19.456-15.530667-34.986667-34.986667-34.986667H216.576c-19.456 0-34.986667 15.530667-34.986667 34.986667V657.408c0 19.456 15.530667 34.986667 34.986667 34.986667h73.813333v19.456c0 11.690667 7.765333 19.456 19.456 19.456h403.882667c7.765333 0 15.530667-7.765333 15.530667-19.456v-19.456h3.84zM344.746667 490.410667v-42.752h27.221333v-97.109334H422.4V474.88l27.221333 54.357333h-58.282666l-15.530667-31.061333c-3.925333-7.765333-7.765333-11.690667-15.530667-7.765333H344.746667zM445.781333 513.706667v-42.752H527.36v-23.296h-81.578667v-42.752H527.36v-19.456h-81.578667v-42.752H682.666667v42.752H585.557333v19.456h93.184v42.752H585.557333v23.296h69.888c19.456-3.925333 27.221333 7.765333 23.296 23.296v31.061333h-50.517333v-3.925333c0-7.765333-3.925333-7.765333-7.765333-7.765334H445.781333zM352.512 237.994667h54.357333v54.357333h217.514667v-54.357333h54.357333V335.018667H352.512v-97.024z m58.282667-23.296H344.746667v-34.986667h97.109333c7.765333 0 11.690667 3.925333 19.456 7.765333l50.517333 31.061334 58.282667-31.061334c7.765333-3.925333 15.530667-7.765333 27.221333-7.765333h81.578667v34.986667h-50.517333c-11.690667 0-19.456 3.925333-27.221334 7.765333l-54.357333 34.986667v27.221333H484.693333v-27.221333l-54.357333-34.986667c-7.936-3.925333-15.701333-7.765333-19.541333-7.765333z m0 0"  horiz-adv-x="1024" />

    
    <glyph glyph-name="pre-m" unicode="&#58933;" d="M511.658667 36.522667c-191.317333 0-346.965333 155.648-346.965334 346.965333C164.693333 574.805333 320.341333 730.453333 511.658667 730.453333c191.317333 0 346.965333-155.648 346.965333-346.965333 0-191.317333-155.648-346.965333-346.965333-346.965333z m0 650.581333c-167.424 0-303.616-136.192-303.616-303.616 0-167.424 136.192-303.616 303.616-303.616 167.424 0 303.616 136.192 303.616 303.616 0 167.424-136.192 303.616-303.616 303.616z m0 0M562.261333 207.530667c-5.546667 0-11.093333 2.133333-15.36 6.314666l-121.173333 121.173334c-25.344 25.344-25.344 66.645333 0 91.989333l121.173333 121.173333c8.448 8.448 22.186667 8.448 30.634667 0 8.448-8.448 8.448-22.186667 0-30.634666l-121.173333-121.173334c-8.448-8.448-8.448-22.186667 0-30.634666l121.173333-121.173334c8.448-8.448 8.448-22.186667 0-30.634666-4.181333-4.266667-9.728-6.4-15.274667-6.4z m0 0"  horiz-adv-x="1024" />

    
    <glyph glyph-name="support" unicode="&#58934;" d="M811.178667 592.554667l-47.018667 81.408H258.901333l-47.018666-81.408c-32-55.466667-16.213333-126.208 36.352-162.901334v-261.632c0.085333-41.301333 33.536-74.837333 74.922666-74.922666h376.917334c41.301333 0 74.837333 33.536 74.837333 74.922666V429.653333c23.978667 16.554667 41.045333 40.874667 48.64 69.290667 8.533333 31.573333 4.096 65.28-12.373333 93.610667zM448.085333 150.784h-25.088V275.029333c-7.338667-10.581333-14.762667-21.248-22.186666-31.744l-2.901334 17.322667c-0.853333 5.802667-1.792 11.52-2.816 17.322667 21.162667 31.573333 37.12 66.389333 47.189334 102.997333l26.026666-6.656c-5.546667-17.493333-12.288-34.56-20.224-51.114667v-172.373333z m29.781334 0c-6.229333 6.656-12.970667 12.8-20.224 18.261333 14.762667 10.325333 32.426667 27.050667 52.992 50.090667l21.162666-14.421333c-17.664-18.346667-35.584-36.266667-53.930666-53.930667z m130.048 0.938667c-17.152 17.834667-34.816 35.157333-52.992 51.968l19.285333 15.445333c6.485333-5.802667 15.445333-14.165333 27.050667-25.088l27.050666-24.064-20.394666-18.261333z m20.309333 74.154666H459.605333v23.210667h36.608V309.76h-28.928v23.04h28.928v47.189333h25.088V332.8h45.226667v47.189333h25.002667V332.8h28.928v-23.125333h-28.928v-60.672h36.693333v-23.125334z m154.709333 283.989334c-5.546667-20.992-18.944-38.485333-37.632-49.237334-18.602667-10.752-40.704-13.653333-61.44-8.021333-20.821333 5.546667-38.570667 19.2-49.322666 37.888L604.16 543.146667 588.885333 500.053333c-11.434667-32.426667-41.984-54.101333-76.373333-54.186666-34.986667 0-65.962667 22.442667-76.970667 55.808l-14.677333 44.544-32.170667-55.722667c-22.357333-38.826667-71.936-52.138667-110.762666-29.866667-38.741333 22.528-51.968 72.106667-29.525334 110.933334l34.816 60.330666h456.789334l34.816-60.330666c10.837333-18.858667 13.738667-40.704 8.106666-61.696z m0 0M521.216 309.674667h45.226667v-60.672h-45.226667z"  horiz-adv-x="1024" />

    
    <glyph glyph-name="service" unicode="&#58935;" d="M357.376 527.274667l111.189333 86.869333c30.122667 23.381333 70.4 29.269333 105.984 15.36l176.725334-69.461333c11.776-4.693333 24.064-6.741333 35.754666-6.741334h29.184c8.448 0 15.616-6.741333 15.616-15.36v-223.317333c0-8.704-5.376-13.994667-16.042666-19.370667-37.888-11.776-60.672-14.677333-68.437334-8.789333-7.765333 5.888-76.373333 91.989333-205.994666 258.133333-5.12 6.485333-14.336 8.192-21.418667 3.925334l-94.208-54.186667c-18.944-10.752-41.813333-11.946667-61.696-3.328-10.752 5.12-15.530667 17.749333-11.008 28.757333-0.170667 2.730667 1.706667 5.461333 4.352 7.509334zM243.456 296.192l23.552 29.696c9.984 12.544 24.576 20.48 40.533333 22.016a58.794667 58.794667 0 0 0 43.946667-13.909333c9.130667-8.106667 120.490667-110.165333 129.621333-119.637334 19.029333-20.906667 22.954667-52.053333 8.533334-76.970666l-3.328-6.058667v-0.682667c15.701333-10.837333 208.810667 78.506667 221.952 86.528 8.874667 5.632 14.848 14.848 16.384 25.258667 1.536 10.410667-1.621333 20.992-8.533334 28.842667l-20.992 26.368L525.653333 510.378667a5.981867 5.981867 0 0 1-7.253333 1.365333l-81.152-46.592c-25.856-15.018667-57.173333-17.493333-85.162667-6.741333-15.701333 5.461333-27.477333 18.261333-33.365333 33.792-4.693333 16.128-2.56 33.450667 5.888 47.957333 1.962667 4.096 0.597333 8.789333-3.328 10.837333-1.28 0.682667-2.645333 0.682667-3.925333 0.682667H206.762667c-4.181333 0-8.106667-1.621333-11.093334-4.522667s-4.608-6.912-4.608-11.008v-225.024c3.328-8.021333 10.496-14.762667 19.029334-14.762666h33.365333z m51.370667 8.533333L272.213333 276.224c-9.642667-12.629333-8.362667-31.232 3.925334-41.216h0.597333l3.242667-2.645333c6.058667-4.864 51.797333-35.242667 137.386666-90.965334 12.970667-9.984 30.976-8.021333 40.704 5.376 0.682667 1.194667 1.536 2.304 2.56 3.328l3.84 7.338667c7.253333 12.288 5.12 27.989333-5.12 37.888-8.448 8.021333-113.578667 109.482667-127.146666 117.504-12.629333 7.253333-28.757333 3.84-37.376-8.106667z m0 0"  horiz-adv-x="1024" />

    
    <glyph glyph-name="check" unicode="&#58936;" d="M441.344 89.344c46.677333 85.333333 209.92 237.909333 326.4 315.818667l45.824 27.989333c18.005333 9.728 33.792 16.469333 46.421333 19.2-35.925333 81.834667-4.437333 148.394667 0.682667 225.194667-43.264-22.186667-86.954667-53.418667-129.109333-89.088l-48.725334-43.861334c-140.544-133.034667-252.416-296.96-252.416-296.96l-82.005333 158.72L162.133333 315.733333c78.848-28.074667 199.424-128.256 278.954667-226.389333"  horiz-adv-x="1024" />

    
    <glyph glyph-name="next-m" unicode="&#58937;" d="M511.658667 36.522667c-191.317333 0-346.965333 155.648-346.965334 346.965333C164.693333 574.805333 320.341333 730.453333 511.658667 730.453333c191.317333 0 346.965333-155.648 346.965333-346.965333 0-191.317333-155.648-346.965333-346.965333-346.965333z m0 650.581333c-167.424 0-303.616-136.192-303.616-303.616 0-167.424 136.192-303.616 303.616-303.616 167.424 0 303.616 136.192 303.616 303.616 0 167.424-136.192 303.616-303.616 303.616z m0 0M461.056 207.530667c-5.546667 0-11.093333 2.133333-15.36 6.314666-8.448 8.448-8.448 22.186667 0 30.634667l121.173333 121.173333c8.448 8.448 8.448 22.186667 0 30.634667l-121.173333 121.173333c-8.448 8.448-8.448 22.186667 0 30.634667 8.448 8.448 22.186667 8.448 30.634667 0l121.173333-121.173333c25.344-25.344 25.344-66.645333 0-91.989334l-121.173333-121.173333c-4.181333-4.096-9.728-6.229333-15.274667-6.229333z m0 0"  horiz-adv-x="1024" />

    
    <glyph glyph-name="sjksh" unicode="&#58931;" d="M139.6-55.1h742.1v-72.9H139.6z m601.7 797.4L567.6 568.5 405.8 676.4c-12.1 8-28.1 6.5-38.4-3.8L185 490.1c-11.9-11.9-11.9-31.1 0-43 11.9-11.9 31.1-11.9 43 0L392.9 612l161.7-107.8c12.1-8 28.1-6.5 38.4 3.8l191.4 191.4v-48.2c0-16.8 13.6-30.4 30.4-30.4s30.4 13.6 30.4 30.4V772.7c0 7.8-3 15.6-8.9 21.5s-13.7 8.9-21.5 8.9H693.1c-16.8 0-30.4-13.6-30.4-30.4s13.6-30.4 30.4-30.4h48.2zM84.8 894.4h851.6c33.6 0 60.8-27.2 60.8-60.8v-669.1c0-33.6-27.2-60.8-60.8-60.8H84.8c-33.6 0-60.8 27.2-60.8 60.8V833.6C24 867.1 51.2 894.4 84.8 894.4z m182.5-669.1c33.6 0 60.8 27.2 60.8 60.8s-27.2 60.8-60.8 60.8-60.8-27.2-60.8-60.8 27.2-60.8 60.8-60.8z m243.3 0c33.6 0 60.8 27.2 60.8 60.8s-27.2 60.8-60.8 60.8c-33.6 0-60.8-27.2-60.8-60.8s27.2-60.8 60.8-60.8z m243.3 0c33.6 0 60.8 27.2 60.8 60.8s-27.2 60.8-60.8 60.8-60.8-27.2-60.8-60.8 27.2-60.8 60.8-60.8z"  horiz-adv-x="1024" />

    
    <glyph glyph-name="lhb" unicode="&#58930;" d="M424.96 47.77l67.43-75.674 214.272 238.285 179.2 200.09c62.976 65.177 55.45 170.854 55.45 170.854-22.477 182.067-179.2 209.05-179.2 209.05-137.114 28.467-216.525-62.209-216.525-62.209-3.737-0.716-97.28-109.414-97.28-109.414-23.961-31.437-45.721-4.454-45.721-4.454-101.07 100.403-199.988 56.934-199.988 56.934a190.515 190.515 0 0 1-104.14-94.413C46.08 454.656 138.24 367.77 138.24 367.77l82.33-91.289 182.323-204.8 0.512 0.358 92.16 103.373S318.003 241.357 291.02 359.014a293.632 293.632 0 0 0-11.981 65.69c-11.52 58.931-46.95 79.667-86.17 80.18 0 0 3.738 75.673 84.634 69.682 0 0 24.013-3.02 51.2-26.214 0 0 76.39-100.403 152.832-28.518L632.934 686.95s23.194 38.247 83.15 14.234L572.21 542.464l15.002-11.264 123.443 134.758s28.467 40.602 80.896 9.882L623.718 487.629l14.234-8.96 127.386 140.083s24.73 40.5 80.179 6.758L677.683 438.938l15.719-8.244 91.443 101.786s21.709 35.84 76.39 5.99L424.96 47.77z"  horiz-adv-x="1024" />

    
    <glyph glyph-name="dbsx" unicode="&#58916;" d="M698 366c-126 0-228-102-228-222s102-228 228-228 228 102 228 228c-12 120-108 222-228 222z m84-258H668c-12 0-18 12-18 18V240c0 12 12 18 18 18 12 0 18-12 18-18v-102h102c12 0 18 0 18-18 6-18-18-12-24-12zM470 144c0 120 102 228 228 228 36 0 66-12 96-18V780c0 30-30 54-54 54H170c-30 0-54-30-54-54v-684c0-30 30-54 54-54h330c-18 36-30 66-30 102zM236 678h366c18 0 30-12 30-30s-12-24-30-24H236c-18 0-30 6-30 24s12 30 30 30z m78-438h-78c-18 0-30 12-30 30s12 30 30 30h78c18-6 24-18 24-36s-6-24-24-24z m84 186H236c-18 0-30 12-30 30s12 30 30 30h162c18 0 30-12 30-30-6-24-12-30-30-30z"  horiz-adv-x="1024" />

    
    <glyph glyph-name="wzgg" unicode="&#58917;" d="M154.758 529.088h85.693v-193.785h-85.693V529.088z m278.433-280.973l-87.337-0.002s12.541-113.759 104.803-232.896c0 0 80.17-3.586 92.266 29.56 0 0 8.509 21.947-17.018 50.161-8.17 12.972-80.835 74.35-92.713 153.176z m311.881 504.021C588.608 565.818 290.317 554.917 290.317 554.917l0.092-248.202c353.362-16.128 455.923-149.144 455.923-149.144 136.595 34.04 122.35 275.671 122.354 275.671C878.898 784.135 745.07 752.135 745.07 752.135z"  horiz-adv-x="1024" />

    
    <glyph glyph-name="xttz" unicode="&#58920;" d="M984.436 432.873H786.618c-23.273 0-39.563-18.618-39.563-41.891v-11.637c0-23.272 18.618-41.89 39.563-41.89h197.818c23.273 0 39.564 18.618 39.564 41.89v11.637c0 23.273-18.618 41.89-39.564 41.89zM525.964 786.618c-60.51-48.873-190.837-118.69-281.6-186.182l-2.328-4.654c-11.636-6.982-16.29-23.273-74.472-23.273H51.2c-30.255 0-48.873-13.964-48.873-46.545v-283.928c0-32.581 16.291-46.545 48.873-46.545h116.364c58.181 0 62.836-16.291 74.472-23.273l2.328-4.654c88.436-67.491 218.763-141.964 281.6-188.51 18.618-13.963 83.781-39.563 83.781 48.873V742.4c-2.327 88.436-65.163 58.182-83.781 44.218z m181.527-195.49c11.636-18.619 30.254-23.273 46.545-11.637l162.91 139.636c13.963 13.964 18.618 39.564 9.309 58.182l-6.982 11.636c-9.31 18.619-30.255 23.273-46.546 11.637L709.818 660.945c-16.29-13.963-18.618-39.563-9.309-58.181l6.982-11.637z m209.454-542.255L754.036 188.509c-16.29 13.964-34.909 9.31-46.545-9.309l-6.982-11.636c-11.636-18.619-6.982-44.219 9.31-58.182l162.908-139.637c16.291-13.963 34.91-9.309 46.546 9.31l6.982 11.636c9.309 18.618 4.654 44.218-9.31 58.182z"  horiz-adv-x="1024" />

    
    <glyph glyph-name="gztz" unicode="&#58927;" d="M858.54 775.741H225.728a74.732 74.732 0 0 1-75.335-75.335v-479.13a75.335 75.335 0 0 1 75.335-78.347h129.576v-108.483a41.283 41.283 0 0 1 42.187-42.187 53.638 53.638 0 0 1 30.134 12.054l138.616 138.616h289.286a74.732 74.732 0 0 1 75.335 75.334V700.406a70.513 70.513 0 0 1-72.322 75.335zM635.55 329.76H310.102a39.174 39.174 0 0 0 0 78.348h325.446a39.174 39.174 0 0 0 0-78.348z m138.615 180.804H310.103a37.969 37.969 0 0 0-39.174 39.174 39.777 39.777 0 0 0 39.174 39.174h464.062a39.777 39.777 0 0 0 39.174-39.174 37.969 37.969 0 0 0-39.174-39.175z"  horiz-adv-x="1097" />

    
    <glyph glyph-name="terminal" unicode="&#58915;" d="M1023.549171 309.143815L947.945721 864.479006A36.535697 36.535697 0 0 1 911.743514 896H114.306833A36.634509 36.634509 0 0 1 78.154032 864.590169L0.339666 309.143815h0.802847l-0.802847-0.91401v-394.432374a41.809782 41.809782 0 0 1 41.797431-41.797431h939.725806a41.809782 41.809782 0 0 1 41.797431 41.797431V308.229805l-0.802847 0.91401z m-73.096098-364.060069H73.423412V309.143815h877.029661zM171.173078 161.024787h96.848006a24.702973 24.702973 0 0 1 24.702974 24.702974V208.763283a24.702973 24.702973 0 0 1-24.702974 24.702974h-96.848006a24.702973 24.702973 0 0 1-24.702974-24.702974v-23.072577a24.702973 24.702973 0 0 1 24.702974-24.665919z m0-145.599324h96.848006a24.702973 24.702973 0 0 1 24.702974 24.702973v23.035523a24.702973 24.702973 0 0 1-24.702974 24.702973h-96.848006a24.702973 24.702973 0 0 1-24.702974-24.702973V40.041976a24.702973 24.702973 0 0 1 24.702974-24.616513z m229.651191 145.599324h0.802846a36.214559 36.214559 0 0 1 36.202208 36.202208v0.111163a36.214559 36.214559 0 0 1-36.202208 36.202207h-0.802846a36.214559 36.214559 0 0 1-36.202208-36.202207v-0.111163a36.214559 36.214559 0 0 1 36.202208-36.202208z m0-145.599324h0.802846a36.214559 36.214559 0 0 1 36.202208 36.202207v0.111164a36.214559 36.214559 0 0 1-36.202208 36.202207h-0.802846a36.214559 36.214559 0 0 1-36.202208-36.202207v-0.111164a36.14045 36.14045 0 0 1 36.202208-36.202207z m146.179844 145.599324h0.790495a36.214559 36.214559 0 0 1 36.202208 36.202208v0.111163a36.214559 36.214559 0 0 1-36.202208 36.202207h-0.790495a36.214559 36.214559 0 0 1-36.202207-36.202207v-0.111163a36.214559 36.214559 0 0 1 36.202207-36.202208z m0-145.599324h0.790495a36.214559 36.214559 0 0 1 36.202208 36.202207v0.111164a36.214559 36.214559 0 0 1-36.202208 36.202207h-0.790495a36.214559 36.214559 0 0 1-36.202207-36.202207v-0.111164a36.14045 36.14045 0 0 1 36.202207-36.202207zM692.022918 161.024787h0.790495A36.214559 36.214559 0 0 1 729.077378 197.226995v0.111163a36.214559 36.214559 0 0 1-36.202208 36.202207H692.022918a36.214559 36.214559 0 0 1-36.202208-36.202207v-0.111163A36.214559 36.214559 0 0 1 692.022918 161.024787z m0-145.599324h0.790495A36.214559 36.214559 0 0 1 729.077378 51.62767v0.111164a36.214559 36.214559 0 0 1-36.202208 36.202207H692.022918a36.214559 36.214559 0 0 1-36.202208-36.202207v-0.111164A36.14045 36.14045 0 0 1 692.022918 15.425463z m146.179844 145.599324h0.802847a36.214559 36.214559 0 0 1 36.202207 36.202208v0.111163A36.214559 36.214559 0 0 1 839.005609 233.540365h-0.802847A36.214559 36.214559 0 0 1 801.951149 197.338158v-0.111163a36.214559 36.214559 0 0 1 36.251613-36.202208z m0-145.599324h0.802847a36.214559 36.214559 0 0 1 36.202207 36.202207v0.111164A36.214559 36.214559 0 0 1 839.005609 87.941041h-0.802847A36.214559 36.214559 0 0 1 801.951149 51.738834v-0.111164a36.14045 36.14045 0 0 1 36.251613-36.202207z"  horiz-adv-x="1024" />

    
    <glyph glyph-name="ylgw" unicode="&#58929;" d="M1002.52228 267.159729a49.958396 49.958396 0 0 0-26.020734 7.331939C924.354161 107.492932 783.517384-19.998069 609.622153-52.103252c-3.530629-42.438157-38.931065-75.896748-81.992966-75.896748-45.427422 0-82.298954 37.071601-82.298954 82.81678s36.871532 82.805011 82.298954 82.805011a81.922354 81.922354 0 0 0 69.282703-38.201403c198.150649 35.212137 348.708424 209.201517 348.708424 418.603104 0 234.704425-188.959246 424.852316-422.121963 424.852315s-422.098425-190.147891-422.098425-424.852315V318.153775A50.699828 50.699828 0 1 0 0.000271 318.153775V500.934421a50.852822 50.852822 0 0 0 50.699827 51.017585 48.699138 48.699138 0 0 0 16.005517-2.683278C123.289824 749.47891 306.364689 896 523.404201 896 741.279296 896 925.02498 748.24319 980.832451 546.891438a49.546489 49.546489 0 0 0 21.689829 4.954649 50.852822 50.852822 0 0 0 50.699827-51.005816V318.153775a50.923434 50.923434 0 0 0-50.699827-50.994046zM162.526877 413.786737c0 199.492288 160.667142 361.195081 358.817791 361.195081s358.817791-161.702793 358.817791-361.195081c0-165.621791-110.791127-305.116929-261.760809-347.766923a144.755775 144.755775 0 0 1-203.411286-13.322239H200.52821l96.339087 79.403839A361.301 361.301 0 0 0 162.526877 413.786737zM694.357241 360.721388a55.24257 55.24257 0 1 1-54.830663 55.24257A55.018963 55.018963 0 0 1 694.357241 360.721388z m-348.284749 0a55.24257 55.24257 0 1 1-54.830663 55.24257 55.018963 55.018963 0 0 1 54.877738-55.24257z"  horiz-adv-x="1053" />

    
    <glyph glyph-name="fws1" unicode="&#58921;" d="M1136.64013 565.632209L1045.710477 798.906284C1042.05097 795.778834 1021.936661 896 946.890824 896H213.860523C138.853616 896 118.674422 795.778834 115.027893 798.906284L24.09824 565.632209C4.165608 527.337161 0 476.623148 0 472.950665c0-76.732844 64.651282-138.957432 144.420738-138.957432 69.310015 0 127.057547 46.989621 141.085655 109.603518 0.999227 2.206085 2.426694 3.893092 3.386991 6.202993l0.480148 1.297697 1.219835-7.89a25.136398 25.136398 0 0 0 1.67403 3.010658c12.976973-63.820756 70.854275-112.172959 141.046724-112.172958h5.255675c70.322219 0 128.952185 48.417088 141.799389 112.484406 12.847204-64.067318 71.47717-112.484406 141.786412-112.484406h5.268651c70.19245 0 128.069751 48.352203 141.046725 112.172958a27.082944 27.082944 0 0 0 1.674029-3.010658l1.219836 7.89 0.480148-1.297697c0.960296-2.335855 2.387763-3.996908 3.38699-6.202993 14.028108-62.613897 71.77564-109.603518 141.085656-109.603518 79.756479 0 144.420738 62.224588 144.420738 138.957432 0 3.672483-4.165608 54.386496-24.09824 92.681544z m-153.128287-565.796043a38.645427 38.645427 0 0 0-14.780773-30.002763l-115.209571 168.960195H301.065785l-117.947712-138.425376V316.655996H94.186873v-345.044748c0-55.009391 46.068256-99.611248 102.959308-99.611248h772.311599c56.839144 0 102.959308 44.601858 102.959308 99.611248V316.655996h-88.931199v-316.81983z"  horiz-adv-x="1160" />

    
    <glyph glyph-name="home1" unicode="&#58922;" d="M937.829297-127.974253H695.713584A24.987855 24.987855 0 0 0 670.725729-102.999271V235.192879H478.572854V-102.999271a24.974982 24.974982 0 0 0-24.987856-24.987855h-242.025596c-63.08114 0-85.507128 44.169671-85.507129 85.494254V295.725026H49.749842c-24.55015 0-40.320434 7.9302-46.963265 23.584622-9.874129 23.301401 8.367906 46.46119 25.38694 64.072414L514.142892 869.81489A87.116341 87.116341 0 0 0 573.683764 896c24.987855-0.901159 46.255211-10.298962 61.858137-26.519826L1120.777475 383.626663c17.315129-17.920193 35.621533-41.10573 25.747404-64.36851-6.629957-15.628674-22.451736-23.584622-46.976138-23.584622h-76.212316V-42.492872c0-41.31171-22.477484-85.481381-85.532876-85.481381z"  horiz-adv-x="1149" />

    
    <glyph glyph-name="service1" unicode="&#58923;" d="M0 749.673225A146.326775 146.326775 0 0 0 146.326775 896h243.751665a146.326775 146.326775 0 0 0 146.326776-146.326775v-316.875858H146.326775a146.326775 146.326775 0 0 0-146.326775 146.326775z m633.8693 0a146.326775 146.326775 0 0 0 146.326775 146.326775h243.79086a146.326775 146.326775 0 0 0 146.326775-146.326775v-170.588278a146.326775 146.326775 0 0 0-146.326775-146.326775h-390.117635zM0 188.967312a146.326775 146.326775 0 0 0 146.326775 146.326776h390.026181v-316.954248a146.326775 146.326775 0 0 0-146.326775-146.326775H146.326775a146.326775 146.326775 0 0 0-146.326775 146.326775z m633.8693 146.326776h390.07844a146.326775 146.326775 0 0 0 146.326776-146.326776v-170.640537a146.326775 146.326775 0 0 0-146.326776-146.326775h-243.790859a146.326775 146.326775 0 0 0-146.326776 146.326775z"  horiz-adv-x="1170" />

    
    <glyph glyph-name="facilities" unicode="&#58924;" d="M0-93.86913600000003a34.130864 34.130864 0 0 1 34.130864-34.130864H477.881485a34.118515 34.118515 0 0 1 34.130863 34.130864v955.762969A34.130864 34.130864 0 0 1 477.881485 896H34.130864A34.143212 34.143212 0 0 1 0 861.869136zM307.20247 708.304947a34.143212 34.143212 0 0 0 34.130863 34.130863h34.130864A34.143212 34.143212 0 0 0 409.607409 708.304947v-34.130864a34.143212 34.143212 0 0 0-34.143212-34.143212h-34.130864a34.143212 34.143212 0 0 0-34.130863 34.143212z m0-230.408027A34.143212 34.143212 0 0 0 341.333333 511.966042h34.130864a34.143212 34.143212 0 0 0 34.143212-34.143212v-36.970986a34.130864 34.130864 0 0 0-34.143212-34.130864h-34.130864a34.130864 34.130864 0 0 0-34.130863 34.130864z m0-230.395678a34.130864 34.130864 0 0 0 34.130863 34.130864h34.130864a34.130864 34.130864 0 0 0 34.143212-34.130864v-34.130864a34.143212 34.143212 0 0 0-34.143212-34.143212h-34.130864a34.143212 34.143212 0 0 0-34.130863 34.143212zM102.404939 708.304947a34.130864 34.130864 0 0 0 34.130864 34.130863h34.130864A34.130864 34.130864 0 0 0 204.79753 708.304947v-34.130864a34.130864 34.130864 0 0 0-34.130863-34.143212h-34.130864a34.130864 34.130864 0 0 0-34.130864 34.143212z m0-230.408027A34.130864 34.130864 0 0 0 136.535803 511.966042h34.130864a34.130864 34.130864 0 0 0 34.130863-34.143212v-36.970986a34.118515 34.118515 0 0 0-34.130863-34.130864h-34.130864a34.118515 34.118515 0 0 0-34.130864 34.130864z m0-230.395678a34.118515 34.118515 0 0 0 34.130864 34.130864h34.130864a34.118515 34.118515 0 0 0 34.130863-34.130864v-34.130864a34.130864 34.130864 0 0 0-34.130863-34.143212h-34.130864a34.130864 34.130864 0 0 0-34.130864 34.143212zM597.339508 409.598148a34.130864 34.130864 0 0 1-34.130864-34.130864v-469.33642a34.118515 34.118515 0 0 1 34.130864-34.130864h59.729011a34.118515 34.118515 0 0 1 34.130864 34.130864V85.94766400000003a34.130864 34.130864 0 0 0 34.143212 34.08147H861.915443a34.130864 34.130864 0 0 0 34.093818-34.08147v-179.8168a34.118515 34.118515 0 0 1 34.130864-34.130864h59.729011a34.118515 34.118515 0 0 1 34.130864 34.130864V375.46728399999995a34.130864 34.130864 0 0 1-34.130864 34.130864z"  horiz-adv-x="1024" />

    
    <glyph glyph-name="userInfo1" unicode="&#58925;" d="M775.322207 368.87668c-173.237631-67.210555-259.201103-262.137547-191.990547-435.349973a335.788116 335.788116 0 0 1 24.777039-50.78915L3.440555-115.561069a504.677793 504.677793 0 0 0 310.544775 525.863043c-113.4249 105.296116-120.066558 282.642249-14.75784 396.092355S581.869739 926.448284 695.319844 821.152169s120.079161-282.654852 14.75784-396.104958q-7.082755-7.637277-14.75784-14.745237a508.118348 508.118348 0 0 0 80.052775-41.488308z m-64.690001-67.941515a252.118348 252.118348 0 0 0 88.219367 50.612711 100.935559 100.935559 0 0 1 157.635406 0 251.727662 251.727662 0 0 0 89.341013-51.671344 100.922956 100.922956 0 0 1 78.817703-136.437552 253.40383 253.40383 0 0 0 0-102.863782 100.822134 100.822134 0 0 1-78.817703-136.664402 251.450401 251.450401 0 0 0-89.857727-51.898193 100.822134 100.822134 0 0 1-157.622803 0.277261 252.055334 252.055334 0 0 0-92.831979 55.162309 100.973367 100.973367 0 0 1-75.175504 134.358096 253.479447 253.479447 0 0 0 1.461921 106.896667 100.89775 100.89775 0 0 1 78.817703 132.240831z m167.03707-289.977059a100.89775 100.89775 0 1 1-100.89775 100.89775 100.910353 100.910353 0 0 1 100.89775-100.89775z"  horiz-adv-x="1129" />

    
    <glyph glyph-name="policy1" unicode="&#58926;" d="M931.304618 662.901867v-602.222719c0-23.031653-15.910756-44.431434-38.942409-48.214411a46.446549 46.446549 0 0 0-54.296845 46.063307v744.232703A93.511232 93.511232 0 0 1 744.826111 896H93.239253A93.511232 93.511232 0 0 1 0 802.760747v-790.901781C0-64.925574 63.049614-127.999913 139.85888-127.999913h744.826111a139.698165 139.698165 0 0 1 139.85888 139.858879V569.625526c-0.543957 51.58942-42.230879 93.276341-93.239253 93.276341z m-279.173803-535.303589H186.478507a46.631989 46.631989 0 0 0 0 93.251616h465.108351a46.582539 46.582539 0 0 0 46.619627-46.619627c0-25.800891-20.843461-46.644352-46.07567-46.644352z m0 233.110496H186.478507a46.619627 46.619627 0 0 0 0 93.239253h465.108351a46.582539 46.582539 0 0 0 46.619627-46.619626c0-25.788529-20.843461-46.631989-46.07567-46.63199z m0 232.541813H186.478507a46.631989 46.631989 0 0 0 0 93.251616h465.108351a46.582539 46.582539 0 0 0 46.619627-46.631989c0-25.739078-20.843461-46.631989-46.07567-46.63199z"  horiz-adv-x="1024" />

    
    <glyph glyph-name="setting2" unicode="&#58928;" d="M1042.912003 250.445134l-0.272007 0.070958A21.287539 21.287539 0 0 0 1018.549598 232.528122a20.991879 20.991879 0 0 0-3.311395 0.75689 0.224702 0.224702 0 0 0 0-0.082785A118.264104 118.264104 0 0 1 903.537756 36.682765a21.287539 21.287539 0 0 0-0.946112-30.039082 22.966889 22.966889 0 0 0-2.660943-2.116928 529.456568 529.456568 0 0 0-227.256303-131.154891 0.6268 0.6268 0 0 1 0 0.141917 21.287539 21.287539 0 0 0-27.591015 11.885542 22.020776 22.020776 0 0 0-1.005245 3.252263h-0.070958a118.264104 118.264104 0 0 1-226.097315-1.537433 21.287539 21.287539 0 0 0-26.479333-14.191693c0-0.212875-0.141917-0.413924-0.189222-0.638626a529.539353 529.539353 0 0 0-241.779135 142.721121c0.070958 0 0.141917 0.141917 0.224702 0.201049a21.287539 21.287539 0 0 0-2.755554 29.920818 20.104898 20.104898 0 0 0 2.365282 2.436241h-0.070958a118.264104 118.264104 0 0 1-109.441602 197.891325 0.082785 0.082785 0 0 1 0 0.059132 21.287539 21.287539 0 0 0-25.131122 16.47419c-0.16557 0-0.354792 0-0.520363-0.106438a532.602393 532.602393 0 0 0 6.208866 267.584363 21.287539 21.287539 0 0 0 24.090398 18.035276 22.056255 22.056255 0 0 0 3.879063-0.934287v0.082785a118.264104 118.264104 0 0 1 116.880414 193.52738 21.287539 21.287539 0 0 0 1.750309 30.003603 22.363742 22.363742 0 0 0 2.294323 1.773962A529.125429 529.125429 0 0 0 388.414798 894.570577a0.366619 0.366619 0 0 1 0-0.094611 21.287539 21.287539 0 0 0 27.591015-11.885543 20.696218 20.696218 0 0 0 1.005245-3.252262h0.070958a118.264104 118.264104 0 0 1 148.350493-77.26194 118.264104 118.264104 0 0 1 77.758648 78.823026h0.070959a21.287539 21.287539 0 0 0 26.502986 14.191692c0.189223 0 0.378445-0.118264 0.567667-0.177396a529.38561 529.38561 0 0 0 231.466505-133.638438l-0.16557-0.153743a21.287539 21.287539 0 0 0 1.182641-32.333406h0.059132a118.264104 118.264104 0 0 1 114.373216-195.017508v-0.070958a21.287539 21.287539 0 0 0 25.521393-15.811911c0.106438-0.46123 0.201049-0.934286 0.283834-1.407343a532.649699 532.649699 0 0 0-0.141917-266.035102z m-512.982378 367.564836c-129.345451 0-234.162926-104.864781-234.162927-234.162927s104.864781-234.162926 234.162927-234.162926 234.162926 104.852955 234.162926 234.162926-104.817476 234.162926-234.162926 234.162927z"  horiz-adv-x="1059" />

    
    <glyph glyph-name="edit" unicode="&#58918;" d="M776 465.6c-12.8 0-24-11.2-24-24v-272c0-17.6-14.4-33.6-33.6-33.6H289.6c-17.6 0-33.6 14.4-33.6 33.6V598.4c0 17.6 14.4 33.6 33.6 33.6h272c12.8 0 24 11.2 24 24s-11.2 24-24 24h-272c-44.8 0-81.6-36.8-81.6-81.6v-428.8c0-44.8 36.8-81.6 81.6-81.6h428.8c44.8 0 81.6 36.8 81.6 81.6v272c0 12.8-11.2 24-24 24zM809.6 673.6c-9.6 9.6-24 9.6-33.6 0l-320-320c-9.6-9.6-9.6-24 0-33.6 4.8-4.8 11.2-6.4 17.6-6.4s12.8 1.6 17.6 6.4l320 320c6.4 8 6.4 24-1.6 33.6z"  horiz-adv-x="1024" />

    
    <glyph glyph-name="yljg" unicode="&#58902;" d="M774.6 84V759h-525v-675H137v-75h750v75H774.6zM437 159h-75v75h75v-75z m0 187.4h-75v75h75v-75z m0 187.6h-75v75h75v-75z m225-375h-75V609h75v-450z"  horiz-adv-x="1024" />

    
    <glyph glyph-name="delete" unicode="&#58903;" d="M789.3-11.3h-40.9 16.2c13.8 0.8 24.7 12.2 24.7 26.2v-26.2z m-580.1 0.2v40.9-16.2c0.8-13.8 12.2-24.7 26.2-24.7h-26.2z m-166 736c0-22.6 18.3-41 41-41h838.1c22.6 0 41 18.3 41 41 0 22.6-18.3 41-41 41H84.2c-22.6-0.1-41-18.4-41-41zM532.7 855.3h-51.4c-22.6 0-41-18.3-41-41v-89.5c0-22.6 18.3-41 41-41h51.4c22.6 0 41 18.3 41 41V814.4c0 22.6-18.4 40.9-41 40.9zM391.8 604.1c-22.6 0-41-18.3-41-41V105c0-22.6 18.3-41 41-41 22.6 0 41 18.3 41 41V563.2c-0.1 22.6-18.4 40.9-41 40.9z m215.2 0c-22.6 0-41-18.3-41-41V105c0-22.6 18.3-41 41-41 22.6 0 41 18.3 41 41V563.2c-0.1 22.6-18.4 40.9-41 40.9zM187.7-92.6H809c34.6 3.2 61.7 32.3 61.7 67.8v0.5h0.1V563.2c0 22.6-18.3 41-41 41-22.6 0-41-18.3-41-41v-573.9h-579V725.9c0 22.6-18.3 41-41 41s-41-18.3-41-41V-29c2.1-33 27.5-59.7 59.9-63.6z"  horiz-adv-x="1024" />

    
    <glyph glyph-name="zzzh" unicode="&#58904;" d="M814.025 189.552c-21.684 34.124-45.613 61.421-46.563 62.545-36.283 41.552-76.626 73.603-119.994 95.286-18.658 9.33-37.665 16.673-56.93 22.017 14.945 10.022 29.372 22.548 42.416 37.233 36.11 40.516 57.017 90.536 59.522 141.764l1.987-0.692-2.592 31.877-1.122 14.167-0.26 0.088c-5.27 45.87-21.597 139.776-52.265 172.604l-6.22 6.652H392.018l-6.22-6.653c-30.754-32.913-46.994-126.732-52.263-172.603l-0.259-0.088-1.124-14.167-2.592-31.877 1.987 0.692c2.505-51.229 23.41-101.16 59.52-141.764 13.563-15.204 28.507-28.162 44.058-38.265-18.056-5.176-35.764-12.173-53.3-20.985-43.196-21.683-83.453-53.56-119.736-95.026-3.11-3.284-27.04-29.113-48.982-61.164-34.383-50.278-45.353-88.549-33.52-116.798 10.8-25.743 38.012-38.788 80.86-38.788h508.395c39.047 0 64.361 12.44 75.159 36.801 12.097 27.905 2.336 66.175-29.975 117.144z m-402.482 540.95h200.852c14.082-23.065 27.127-76.711 33.778-123.19-0.087 0-0.259 0.088-0.346 0.088-2.506 0.605-5.01 1.296-7.429 1.9-0.173 0.086-0.346 0.086-0.519 0.172l-7.776 1.815c-0.259 0.085-0.517 0.085-0.69 0.171a525.284 525.284 0 0 1-16.068 3.37c-0.087 0-0.173 0-0.26 0.086-8.292 1.642-16.587 3.024-24.965 4.234-8.38 1.21-16.76 2.246-25.225 3.022h-0.172a504.382 504.382 0 0 1-16.414 1.297c-0.259 0-0.519 0-0.864 0.086-2.678 0.174-5.269 0.347-7.949 0.434h-0.432c-2.506 0.086-5.01 0.259-7.516 0.259h-0.95c-2.506 0.086-5.01 0.172-7.517 0.172h-1.555c-2.505 0-5.096 0.087-7.602 0.087s-5.096 0-7.603-0.087h-1.555c-2.506 0-5.01-0.086-7.516-0.172h-0.952l-7.515-0.26h-0.519c-2.678-0.086-5.269-0.258-7.948-0.433-0.26 0-0.605 0-0.864-0.086-5.441-0.344-10.884-0.778-16.326-1.297h-0.174c-8.38-0.776-16.76-1.813-25.139-3.022h-0.086c-8.293-1.21-16.672-2.592-24.88-4.234-0.085 0-0.171 0-0.258-0.086a470.657 470.657 0 0 1-15.982-3.37c-0.26-0.086-0.518-0.086-0.777-0.171l-7.775-1.815c-0.174-0.086-0.346-0.086-0.52-0.172-2.506-0.605-5.01-1.21-7.516-1.9-0.086 0-0.259-0.088-0.346-0.088 6.743 46.479 19.702 100.126 33.87 123.19z m11.317-295.964c-31.877 35.245-49.414 79.304-49.414 124.225v3.197a618.46 618.46 0 0 0 16.846 4.666 492.318 492.318 0 0 0 86.388 13.91c2.851 0.171 5.615 0.345 8.467 0.517h0.605c2.763 0.173 5.44 0.259 8.207 0.346h0.778c2.764 0.087 5.528 0.173 8.207 0.259h0.52c2.85 0.087 5.7 0.087 8.55 0.087s5.702 0 8.553-0.087h0.431c2.765-0.086 5.53-0.086 8.294-0.26h0.691c2.765-0.085 5.529-0.258 8.294-0.345h0.519c38.01-2.073 75.502-8.466 111.785-19.092v-3.197c0-44.92-17.537-88.98-49.5-124.225-27.125-29.977-62.112-49.327-89.065-49.327-27.043-0.001-62.03 19.35-89.156 49.326z m91.744-97.522c47.514 0 93.905-13.823 137.185-40.603L510.113 181 376.729 295.98c43.538 27.041 90.102 41.035 137.875 41.035zM805.3 89.859c-3.197-7.342-16.587-11.49-36.543-11.49H260.363c-23.238 0-38.615 4.666-41.985 12.785-4.147 9.849 1.384 34.9 29.2 75.59 20.991 30.668 45.007 56.239 45.265 56.498l0.606 0.604c14.686 16.847 30.064 31.877 45.873 45.009l170.012-146.43L689.54 269.2c15.982-13.304 31.445-28.42 46.304-45.44 0.951-1.036 23.325-26.78 42.849-57.535 26.175-41.378 30.928-66.604 26.608-76.366zM628.02 752.283H400.163l-30.699-74.692-19.1-99.952 45.706 6.14 169.869 13.644 111.882-19.784-49.801 174.644z m-83.094-89.594h-18.228v-18.573H497.24V662.69h-18.227v29.804h18.227v18.573h29.458v-18.573h18.228v-29.804z m-342.943-583.4l42.979-31.722 560.771 15.86 31.723 30.188-17.396 47.072-40.933 53.212-41.955 56.282-47.072 47.072L512 157.06 344.223 297.253l-40.932-34.792-42.467-42.467-31.211-47.584-19.443-29.676-13.303-33.769z"  horiz-adv-x="1024" />

    
    <glyph glyph-name="close" unicode="&#58888;" d="M913.606 714.8L582.774 384.12l330.738-330.588-0.046-0.046c0.062-0.062 0.127-0.118 0.189-0.18a50 50 0 0 0-70.855-70.568 52.073 52.073 0 0 0-1.591 1.674L512.047 313.425 182.884-15.588a52.073 52.073 0 0 0-1.591-1.674 50 50 0 0 0-70.854 70.568c0.062 0.062 0.127 0.118 0.189 0.18l-0.046 0.046L441.32 384.12 110.488 714.8a50 50 0 0 0 70.712 70.712l330.848-330.7 330.852 330.7a50 50 0 0 0 70.706-70.712z"  horiz-adv-x="1024" />

    
    <glyph glyph-name="exit" unicode="&#58889;" d="M493.937 68.062a18 18 0 0 0 18-18h0.062v-64.002h-0.052a18 18 0 0 0-18-18v-0.063H114v0.052a18 18 0 0 0-18 18V782a18 18 0 0 0 18 18h379.948a18 18 0 0 0 18-18H512v-64h-0.062a18 18 0 0 0-18-18H213.993c0-0.049 0.007-0.1 0.007-0.146a18 18 0 0 1-18-18v-595.791a18 18 0 0 1 18-18v-0.062h278.7c0.411 0.027 0.82 0.061 1.237 0.061zM927.033 347.658L705.709 126.333l-2.829-2.833-0.123 0.123a49.985 49.985 0 0 0-70.465 70.465l-0.123 0.123 2.831 2.833L759.954 322H350v0.174a49.985 49.985 0 0 0 0 99.652V422h433.954L635 570.956l-2.829 2.828 0.123 0.123a49.985 49.985 0 0 0 70.465 70.465l0.123 0.123 2.828-2.828 221.323-221.325a52.476 52.476 0 0 0 0-72.684z"  horiz-adv-x="1024" />

    
    <glyph glyph-name="fold" unicode="&#58890;" d="M944.757 146.253a50 50 0 0 0-69-1.624L511.632 455.056 149.67 146.919c-0.213-0.221-0.415-0.448-0.633-0.666a50 50 0 0 0-70.9 70.509l-0.089 0.09 1.556 1.325q1.685 1.571 3.474 2.957l395.957 337.047 0.037-0.03a49.989 49.989 0 0 0 65.1 0.107l0.018 0.014 393.445-335.4a50.23 50.23 0 0 0 7.127-5.907c0.289-0.29 0.56-0.591 0.841-0.885l1.44-1.227-0.159-0.159a50 50 0 0 0-2.127-68.441z"  horiz-adv-x="1024" />

    
    <glyph glyph-name="issue" unicode="&#58891;" d="M511.5-62.5c-247.424 0-448 200.576-448 448s200.576 448 448 448 448-200.576 448-448-200.576-448-448-448z m0 796c-192.195 0-348-155.805-348-348s155.805-348 348-348 348 155.8 348 348-155.8 348-348 348z m50.156-416.714v-19A50 50 0 1 0 462 292h-0.344v63H462q-0.246 2.467-0.25 5a50 50 0 0 0 50 50c0.084 0 0.166-0.006 0.25-0.006V410a84 84 0 1 1-84 84c0-0.6 0.033-1.187 0.045-1.781h-0.3c0-0.074 0.006-0.146 0.006-0.219a50 50 0 1 0-99.707 5.385C329.85 597.442 411.511 678 512 678a184.023 184.023 0 0 0 49.656-361.214zM510 192a50 50 0 1 0-50-50 50 50 0 0 0 50 50z"  horiz-adv-x="1024" />

    
    <glyph glyph-name="message" unicode="&#58893;" d="M878 118H146a50 50 0 0 0 0 100h14a18 18 0 0 1 18 18V427h0.011c0.492 167.163 123.778 305.422 284.4 329.33a49.988 49.988 0 0 0 99.174 0C722.211 732.422 845.5 594.163 845.989 427H846v-187.584A17.972 17.972 0 0 1 863.667 218H878a50 50 0 0 0 0-100zM512-32a100 100 0 0 0-100 100h200a100 100 0 0 0-100-100z"  horiz-adv-x="1024" />

    
    <glyph glyph-name="password" unicode="&#58894;" d="M827.97 516v-163.662H543.827c-10.464 0-21.078-0.088-31.818-0.088s-21.353 0.088-31.818 0.088h-284.2V516h0.029c0 174.522 141.474 316 315.991 316S828 690.522 828 516h-0.03zM511.9 732c-119.228 0-215.881-96.706-215.881-216h-0.238v-81.5h194.381c7.149 0 14.4-0.085 21.738-0.085s14.963 0.166 21.738 0.085h193.906V516h0.237c0 119.294-96.653 216-215.881 216zM927.781 415.384v-63.572h-0.041C927.474 122.289 741.333-63.7 511.747-63.7c-229.751 0-416 186.249-416 416 0 0.912 0.029 1.818 0.034 2.73v62.6c0 0.07-0.01 0.137-0.01 0.207a18 18 0 0 0 18 18c0.209 0 0.411-0.024 0.619-0.032h794.959c0.207 0.008 0.41 0.032 0.62 0.032a17.872 17.872 0 0 0 17.812-20.453zM537 330.042h-0.244a24.995 24.995 0 0 1-49.637 0H487v-1.288c-0.037-0.556-0.063-1.116-0.063-1.681s0.026-1.125 0.063-1.681v-195.35h0.12a25.266 25.266 0 0 1-0.183-2.979 25 25 0 0 1 50 0 25.267 25.267 0 0 1-0.182 2.979H537v200z"  horiz-adv-x="1024" />

    
    <glyph glyph-name="succsess" unicode="&#58895;" d="M511.5-62.5c-247.424 0-448 200.576-448 448s200.576 448 448 448 448-200.576 448-448-200.576-448-448-448z m0 796c-192.195 0-348-155.805-348-348s155.805-348 348-348 348 155.8 348 348-155.8 348-348 348z m227.973-242.906L493.359 244.352l0.062-0.063-36.462-36.462a4.14 4.14 0 0 1-0.159 0.144 49.955 49.955 0 0 0-68.289 0c-0.033-0.031-0.069-0.06-0.1-0.092L244.829 351.461l0.092 0.092a49.989 49.989 0 1 0 73.724 67.513l104-104 248.44 248.57 0.056-0.056a49.99 49.99 0 1 0 68.332-72.986z"  horiz-adv-x="1024" />

    
    <glyph glyph-name="user" unicode="&#58897;" d="M926.531 50.417a18 18 0 0 0-10.811-16.5 897.57 897.57 0 0 0-807.049-0.194A17.939 17.939 0 0 0 98.627 56.6C158.053 227.687 320.675 350.5 512 350.5c190.9 0 353.209-122.273 412.963-292.762a17.92 17.92 0 0 0 1.568-7.321zM512 400c-119.293 0-216 96.707-216 216S392.707 832 512 832s216-96.707 216-216-96.707-216-216-216z"  horiz-adv-x="1024" />

    
    <glyph glyph-name="warning" unicode="&#58899;" d="M511.5-62.5c-247.424 0-448 200.576-448 448s200.576 448 448 448 448-200.576 448-448-200.576-448-448-448z m0 796c-192.195 0-348-155.805-348-348s155.805-348 348-348 348 155.8 348 348-155.8 348-348 348zM512 291a50 50 0 0 0-50 50V623a50 50 0 0 0 100 0v-282a50 50 0 0 0-50-50z m-1-50a50 50 0 1 0-50-50 50 50 0 0 0 50 50z"  horiz-adv-x="1024" />

    


  </font>
</defs>
</svg>
